<?xml version="1.0" encoding="UTF-8"?>
<!DOCTYPE svg PUBLIC "-//W3C//DTD SVG 1.1//EN" "http://www.w3.org/Graphics/SVG/1.1/DTD/svg11.dtd">
<svg xmlns="http://www.w3.org/2000/svg" version="1.1" width="619px" height="403px" style="shape-rendering:geometricPrecision; text-rendering:geometricPrecision; image-rendering:optimizeQuality; fill-rule:evenodd; clip-rule:evenodd" xmlns:xlink="http://www.w3.org/1999/xlink">
<g><path style="opacity:0.176" fill="#193750" d="M 332.5,51.5 C 331.5,51.5 330.5,51.5 329.5,51.5C 324.693,48.595 319.693,45.9283 314.5,43.5C 309.192,40.0992 303.859,36.5992 298.5,33C 296.613,32.2204 294.946,32.3871 293.5,33.5C 283.055,38.775 272.722,44.275 262.5,50C 258.7,51.9789 255.366,54.4789 252.5,57.5C 249.194,58.8202 246.194,60.6535 243.5,63C 242.207,63.49 240.873,63.6567 239.5,63.5C 246.597,58.4418 253.93,53.6085 261.5,49C 272.777,42.4443 284.277,36.2777 296,30.5C 308.621,36.8882 320.788,43.8882 332.5,51.5 Z"/></g>
<g><path style="opacity:1" fill="#5cc0e0" d="M 314.5,43.5 C 312.69,44.9082 310.69,46.0749 308.5,47C 309.672,47.4186 310.672,48.0853 311.5,49C 309.938,52.1544 308.272,55.3211 306.5,58.5C 307.301,60.3527 307.635,62.0194 307.5,63.5C 308.281,62.2713 308.781,60.938 309,59.5C 310.162,65.4123 307.662,67.7456 301.5,66.5C 301.253,68.8583 301.919,70.8583 303.5,72.5C 301.938,72.2671 300.605,71.6005 299.5,70.5C 298.791,69.596 297.791,69.2627 296.5,69.5C 295.448,69.3505 294.448,69.5172 293.5,70C 284.435,75.8574 275.435,81.6907 266.5,87.5C 264.326,87.7497 262.659,88.7497 261.5,90.5C 257.495,91.4977 254.161,93.4977 251.5,96.5C 249.833,97.1667 248.167,97.8333 246.5,98.5C 244.158,98.2252 244.158,97.3919 246.5,96C 253.069,91.916 259.736,88.0826 266.5,84.5C 269.138,82.176 272.138,80.3426 275.5,79C 276.761,74.1813 279.761,70.848 284.5,69C 282.292,67.2254 279.958,65.7254 277.5,64.5C 279.554,62.7437 281.721,62.4103 284,63.5C 284.692,62.9747 285.192,62.3081 285.5,61.5C 285.179,58.1552 284.845,54.8219 284.5,51.5C 284.406,49.0884 285.406,47.255 287.5,46C 283.388,43.453 283.055,40.7863 286.5,38C 288.74,37.023 291.073,36.523 293.5,36.5C 293.5,35.5 293.5,34.5 293.5,33.5C 294.946,32.3871 296.613,32.2204 298.5,33C 303.859,36.5992 309.192,40.0992 314.5,43.5 Z"/></g>
<g><path style="opacity:1" fill="#4ab2da" d="M 293.5,33.5 C 293.5,34.5 293.5,35.5 293.5,36.5C 291.073,36.523 288.74,37.023 286.5,38C 283.055,40.7863 283.388,43.453 287.5,46C 285.406,47.255 284.406,49.0884 284.5,51.5C 284.845,54.8219 285.179,58.1552 285.5,61.5C 285.192,62.3081 284.692,62.9747 284,63.5C 281.721,62.4103 279.554,62.7437 277.5,64.5C 279.958,65.7254 282.292,67.2254 284.5,69C 279.761,70.848 276.761,74.1813 275.5,79C 272.138,80.3426 269.138,82.176 266.5,84.5C 266.773,82.549 266.107,81.049 264.5,80C 266.115,76.1766 265.115,73.1766 261.5,71C 262.167,70.6667 262.833,70.3333 263.5,70C 261.184,67.8477 260.85,65.3477 262.5,62.5C 261.137,61.1072 260.304,59.4405 260,57.5C 257.568,56.5504 255.068,56.5504 252.5,57.5C 255.366,54.4789 258.7,51.9789 262.5,50C 272.722,44.275 283.055,38.775 293.5,33.5 Z"/></g>
<g><path style="opacity:1" fill="#7ac8df" d="M 314.5,43.5 C 319.693,45.9283 324.693,48.595 329.5,51.5C 332.09,52.7492 334.424,54.4159 336.5,56.5C 332.165,54.9486 329.165,56.4486 327.5,61C 328.69,63.1164 330.023,65.1164 331.5,67C 330.216,67.6838 329.049,67.5171 328,66.5C 327.56,68.0762 326.727,69.4096 325.5,70.5C 326.833,71.8333 328.167,73.1667 329.5,74.5C 329.154,75.6956 328.654,75.6956 328,74.5C 327.602,77.2317 326.102,79.065 323.5,80C 323.833,80.3333 324.167,80.6667 324.5,81C 323.049,80.7374 321.716,80.9041 320.5,81.5C 324.028,83.2313 327.694,84.5646 331.5,85.5C 334.578,87.5333 336.911,90.2 338.5,93.5C 334.673,91.754 331.007,89.754 327.5,87.5C 319.42,82.469 311.42,77.469 303.5,72.5C 301.919,70.8583 301.253,68.8583 301.5,66.5C 307.662,67.7456 310.162,65.4123 309,59.5C 308.781,60.938 308.281,62.2713 307.5,63.5C 307.635,62.0194 307.301,60.3527 306.5,58.5C 308.272,55.3211 309.938,52.1544 311.5,49C 310.672,48.0853 309.672,47.4186 308.5,47C 310.69,46.0749 312.69,44.9082 314.5,43.5 Z"/></g>
<g><path style="opacity:1" fill="#39a5d6" d="M 266.5,84.5 C 259.736,88.0826 253.069,91.916 246.5,96C 244.158,97.3919 244.158,98.2252 246.5,98.5C 238.859,103.127 231.192,107.794 223.5,112.5C 223.5,110.833 223.5,109.167 223.5,107.5C 224.708,106.766 226.041,106.433 227.5,106.5C 227.351,105.448 227.517,104.448 228,103.5C 228.333,103.833 228.667,104.167 229,104.5C 231,103.167 232.667,101.5 234,99.5C 234.333,100.167 234.667,100.833 235,101.5C 237.333,99.9938 239.5,98.3271 241.5,96.5C 239.571,94.9402 238.238,92.9402 237.5,90.5C 236.167,89.8333 234.833,89.1667 233.5,88.5C 236.167,87.5 236.167,86.5 233.5,85.5C 232.914,85.7093 232.414,86.0426 232,86.5C 232,85.1667 232,83.8333 232,82.5C 231.586,82.9574 231.086,83.2907 230.5,83.5C 228.549,81.3776 226.215,79.8776 223.5,79C 225.061,78.059 226.395,76.8924 227.5,75.5C 226.833,75.1667 226.167,74.8333 225.5,74.5C 223.823,75.1869 222.156,75.8535 220.5,76.5C 221.29,75.2058 222.29,74.0391 223.5,73C 229.839,71.4009 235.172,68.2342 239.5,63.5C 240.873,63.6567 242.207,63.49 243.5,63C 246.194,60.6535 249.194,58.8202 252.5,57.5C 255.068,56.5504 257.568,56.5504 260,57.5C 260.304,59.4405 261.137,61.1072 262.5,62.5C 260.85,65.3477 261.184,67.8477 263.5,70C 262.833,70.3333 262.167,70.6667 261.5,71C 265.115,73.1766 266.115,76.1766 264.5,80C 266.107,81.049 266.773,82.549 266.5,84.5 Z"/></g>
<g><path style="opacity:1" fill="#a3d5df" d="M 345.5,61.5 C 348.004,62.5839 350.337,63.9172 352.5,65.5C 350.743,66.0843 349.41,67.251 348.5,69C 347.211,75.8698 345.711,82.7032 344,89.5C 343.107,88.2888 342.274,88.2888 341.5,89.5C 343.435,93.9319 346.768,96.7653 351.5,98C 351.167,98.3333 350.833,98.6667 350.5,99C 351.381,99.7083 352.047,100.542 352.5,101.5C 347.5,99.3357 342.833,96.669 338.5,93.5C 336.911,90.2 334.578,87.5333 331.5,85.5C 333.195,84.9886 334.861,84.3219 336.5,83.5C 334.955,80.8026 335.621,78.8026 338.5,77.5C 338.882,73.5772 340.215,70.0772 342.5,67C 342.167,66.6667 341.833,66.3333 341.5,66C 342.793,65.51 344.127,65.3433 345.5,65.5C 345.5,64.1667 345.5,62.8333 345.5,61.5 Z"/></g>
<g><path style="opacity:0.016" fill="#445359" d="M 329.5,51.5 C 330.5,51.5 331.5,51.5 332.5,51.5C 347.869,60.5149 363.202,69.5149 378.5,78.5C 377.833,78.5 377.167,78.5 376.5,78.5C 374.833,77.8333 373.167,77.1667 371.5,76.5C 365.698,72.0931 359.365,68.4265 352.5,65.5C 350.337,63.9172 348.004,62.5839 345.5,61.5C 342.634,59.5675 339.634,57.9009 336.5,56.5C 334.424,54.4159 332.09,52.7492 329.5,51.5 Z"/></g>
<g><path style="opacity:0.106" fill="#0c2a4a" d="M 239.5,63.5 C 235.172,68.2342 229.839,71.4009 223.5,73C 222.29,74.0391 221.29,75.2058 220.5,76.5C 217.976,77.9269 215.31,79.0936 212.5,80C 205.698,85.052 198.698,89.552 191.5,93.5C 181.07,98.9777 170.737,104.644 160.5,110.5C 160.5,110.167 160.5,109.833 160.5,109.5C 182.925,96.2607 205.258,82.7607 227.5,69C 231.672,67.4121 235.672,65.5788 239.5,63.5 Z"/></g>
<g><path style="opacity:1" fill="#8bd1e1" d="M 336.5,56.5 C 339.634,57.9009 342.634,59.5675 345.5,61.5C 345.5,62.8333 345.5,64.1667 345.5,65.5C 344.127,65.3433 342.793,65.51 341.5,66C 341.833,66.3333 342.167,66.6667 342.5,67C 340.215,70.0772 338.882,73.5772 338.5,77.5C 335.621,78.8026 334.955,80.8026 336.5,83.5C 334.861,84.3219 333.195,84.9886 331.5,85.5C 327.694,84.5646 324.028,83.2313 320.5,81.5C 321.716,80.9041 323.049,80.7374 324.5,81C 324.167,80.6667 323.833,80.3333 323.5,80C 326.102,79.065 327.602,77.2317 328,74.5C 328.654,75.6956 329.154,75.6956 329.5,74.5C 328.167,73.1667 326.833,71.8333 325.5,70.5C 326.727,69.4096 327.56,68.0762 328,66.5C 329.049,67.5171 330.216,67.6838 331.5,67C 330.023,65.1164 328.69,63.1164 327.5,61C 329.165,56.4486 332.165,54.9486 336.5,56.5 Z"/></g>
<g><path style="opacity:1" fill="#2b97cf" d="M 223.5,107.5 C 222.595,103.88 221.595,99.88 220.5,95.5C 218.997,96.0522 217.331,96.0522 215.5,95.5C 215.312,93.8967 215.812,92.5634 217,91.5C 219.301,92.8672 221.801,93.5339 224.5,93.5C 224.522,90.0022 223.022,88.6689 220,89.5C 218.89,87.9632 217.39,87.2965 215.5,87.5C 215.688,85.8967 215.188,84.5634 214,83.5C 210.653,85.0426 207.32,86.7092 204,88.5C 203.506,90.1341 203.34,91.8008 203.5,93.5C 205.954,93.6795 208.121,93.0128 210,91.5C 211.225,91.8623 212.391,92.3623 213.5,93C 211.04,93.9813 208.54,94.8146 206,95.5C 204.463,94.8864 203.13,94.8864 202,95.5C 201.599,93.4788 200.432,92.1455 198.5,91.5C 196.382,92.9459 194.049,93.6126 191.5,93.5C 198.698,89.552 205.698,85.052 212.5,80C 215.31,79.0936 217.976,77.9269 220.5,76.5C 222.156,75.8535 223.823,75.1869 225.5,74.5C 226.167,74.8333 226.833,75.1667 227.5,75.5C 226.395,76.8924 225.061,78.059 223.5,79C 226.215,79.8776 228.549,81.3776 230.5,83.5C 231.086,83.2907 231.586,82.9574 232,82.5C 232,83.8333 232,85.1667 232,86.5C 232.414,86.0426 232.914,85.7093 233.5,85.5C 236.167,86.5 236.167,87.5 233.5,88.5C 234.833,89.1667 236.167,89.8333 237.5,90.5C 238.238,92.9402 239.571,94.9402 241.5,96.5C 239.5,98.3271 237.333,99.9938 235,101.5C 234.667,100.833 234.333,100.167 234,99.5C 232.667,101.5 231,103.167 229,104.5C 228.667,104.167 228.333,103.833 228,103.5C 227.517,104.448 227.351,105.448 227.5,106.5C 226.041,106.433 224.708,106.766 223.5,107.5 Z"/></g>
<g><path style="opacity:1" fill="#b9dcdf" d="M 352.5,65.5 C 359.365,68.4265 365.698,72.0931 371.5,76.5C 369.5,75.8333 367.5,75.1667 365.5,74.5C 365.64,76.1238 364.973,77.2904 363.5,78C 363.833,78.3333 364.167,78.6667 364.5,79C 362.667,79.5 361.5,80.6667 361,82.5C 360.667,82.1667 360.333,81.8333 360,81.5C 359.504,83.0349 359.67,84.5349 360.5,86C 357.49,90.8582 356.49,96.0249 357.5,101.5C 360.867,103.227 364.034,105.227 367,107.5C 367.483,108.448 367.649,109.448 367.5,110.5C 362.233,107.89 357.233,104.89 352.5,101.5C 352.047,100.542 351.381,99.7083 350.5,99C 350.833,98.6667 351.167,98.3333 351.5,98C 346.768,96.7653 343.435,93.9319 341.5,89.5C 342.274,88.2888 343.107,88.2888 344,89.5C 345.711,82.7032 347.211,75.8698 348.5,69C 349.41,67.251 350.743,66.0843 352.5,65.5 Z"/></g>
<g><path style="opacity:0.176" fill="#5e615b" d="M 376.5,78.5 C 377.167,78.5 377.833,78.5 378.5,78.5C 396.858,89.2069 415.192,99.8736 433.5,110.5C 433.5,111.833 433.5,113.167 433.5,114.5C 433.167,114.5 432.833,114.5 432.5,114.5C 431.321,111.375 428.987,109.375 425.5,108.5C 425.631,107.624 425.298,106.957 424.5,106.5C 417.67,103.921 411.337,100.587 405.5,96.5C 399.468,92.502 393.134,88.8353 386.5,85.5C 383.167,83.1667 379.833,80.8333 376.5,78.5 Z"/></g>
<g><path style="opacity:1" fill="#276ba6" d="M 296.5,69.5 C 297.791,69.2627 298.791,69.596 299.5,70.5C 297.527,79.7755 296.86,89.4422 297.5,99.5C 293.868,100.984 290.534,102.984 287.5,105.5C 283.727,105.737 280.06,105.237 276.5,104C 277.749,101.79 277.582,99.6237 276,97.5C 274.701,97.9662 273.201,97.9662 271.5,97.5C 271.863,95.0885 270.863,93.5885 268.5,93C 268.833,92.6667 269.167,92.3333 269.5,92C 266.986,90.7475 264.32,90.2475 261.5,90.5C 262.659,88.7497 264.326,87.7497 266.5,87.5C 268.936,87.683 271.103,87.0163 273,85.5C 275.405,88.0009 277.905,90.5009 280.5,93C 283.76,93.4221 286.426,94.9221 288.5,97.5C 292.765,99.451 295.265,98.1176 296,93.5C 296.5,85.5069 296.666,77.5069 296.5,69.5 Z"/></g>
<g><path style="opacity:1" fill="#2a7ab5" d="M 296.5,69.5 C 296.666,77.5069 296.5,85.5069 296,93.5C 295.265,98.1176 292.765,99.451 288.5,97.5C 286.426,94.9221 283.76,93.4221 280.5,93C 277.905,90.5009 275.405,88.0009 273,85.5C 271.103,87.0163 268.936,87.683 266.5,87.5C 275.435,81.6907 284.435,75.8574 293.5,70C 294.448,69.5172 295.448,69.3505 296.5,69.5 Z"/></g>
<g><path style="opacity:1" fill="#28466f" d="M 299.5,70.5 C 300.605,71.6005 301.938,72.2671 303.5,72.5C 311.42,77.469 319.42,82.469 327.5,87.5C 328.096,89.7454 329.096,91.7454 330.5,93.5C 330.611,94.1174 330.944,94.6174 331.5,95C 329.955,96.8219 329.288,98.9886 329.5,101.5C 329.701,104.988 330.368,108.321 331.5,111.5C 327.607,111.635 323.94,112.302 320.5,113.5C 319.594,112.035 318.261,111.035 316.5,110.5C 315.614,109.675 315.281,108.675 315.5,107.5C 311.785,105.494 307.785,104.161 303.5,103.5C 303.241,99.9319 301.241,98.5985 297.5,99.5C 296.86,89.4422 297.527,79.7755 299.5,70.5 Z"/></g>
<g><path style="opacity:1" fill="#e8e8d7" d="M 386.5,85.5 C 393.134,88.8353 399.468,92.502 405.5,96.5C 403.409,96.6816 401.409,96.3482 399.5,95.5C 399.094,96.5575 399.094,97.8908 399.5,99.5C 397.876,99.6399 396.71,98.9733 396,97.5C 395.25,98.1258 394.416,98.6258 393.5,99C 395.392,99.9734 397.392,100.64 399.5,101C 397.559,101.304 395.893,102.137 394.5,103.5C 393.749,102.624 393.249,101.624 393,100.5C 392.517,103.591 391.35,106.757 389.5,110C 391.141,113.345 391.641,116.845 391,120.5C 389.951,119.483 388.784,119.316 387.5,120C 388.931,120.465 390.097,121.299 391,122.5C 391.354,125.047 391.02,127.381 390,129.5C 391.33,130.582 392.83,131.249 394.5,131.5C 393.229,133.934 391.229,135.434 388.5,136C 387.748,136.671 387.414,137.504 387.5,138.5C 383.319,138.681 379.652,140.014 376.5,142.5C 374.833,142.5 373.167,142.5 371.5,142.5C 371.729,140.567 372.562,138.9 374,137.5C 376.215,136.345 378.048,134.845 379.5,133C 378.167,131.333 376.833,129.667 375.5,128C 375.905,127.055 376.572,126.388 377.5,126C 376.484,125.481 375.818,124.647 375.5,123.5C 374.701,120.574 374.701,117.407 375.5,114C 374.139,112.073 373.306,109.906 373,107.5C 369.903,106.711 369.736,105.544 372.5,104C 372.043,103.586 371.709,103.086 371.5,102.5C 373.022,99.3604 373.855,96.0271 374,92.5C 375.385,91.4495 376.385,90.1161 377,88.5C 377.333,89.1667 377.667,89.8333 378,90.5C 378.495,84.8366 381.328,83.1699 386.5,85.5 Z"/></g>
<g><path style="opacity:1" fill="#f2ecd7" d="M 405.5,96.5 C 411.337,100.587 417.67,103.921 424.5,106.5C 425.298,106.957 425.631,107.624 425.5,108.5C 425.574,110.411 426.574,111.578 428.5,112C 422.86,116.637 416.527,119.97 409.5,122C 408.743,123.512 407.743,124.846 406.5,126C 404.133,126.374 402.3,127.541 401,129.5C 398.775,130.096 396.608,130.763 394.5,131.5C 392.83,131.249 391.33,130.582 390,129.5C 391.02,127.381 391.354,125.047 391,122.5C 390.097,121.299 388.931,120.465 387.5,120C 388.784,119.316 389.951,119.483 391,120.5C 391.641,116.845 391.141,113.345 389.5,110C 391.35,106.757 392.517,103.591 393,100.5C 393.249,101.624 393.749,102.624 394.5,103.5C 395.893,102.137 397.559,101.304 399.5,101C 397.392,100.64 395.392,99.9734 393.5,99C 394.416,98.6258 395.25,98.1258 396,97.5C 396.71,98.9733 397.876,99.6399 399.5,99.5C 399.094,97.8908 399.094,96.5575 399.5,95.5C 401.409,96.3482 403.409,96.6816 405.5,96.5 Z"/></g>
<g><path style="opacity:1" fill="#248cca" d="M 191.5,93.5 C 190.793,95.1344 189.627,96.4677 188,97.5C 187.271,101.333 188.937,102.999 193,102.5C 195.034,102.646 196.701,101.98 198,100.5C 200.135,102.278 202.635,102.945 205.5,102.5C 205.954,109.507 206.787,109.841 208,103.5C 208.29,105.952 208.956,108.285 210,110.5C 212.793,108.114 213.626,108.781 212.5,112.5C 213.971,115.136 215.637,117.636 217.5,120C 217.043,120.414 216.709,120.914 216.5,121.5C 217.747,124.329 219.247,126.995 221,129.5C 221.388,128.572 222.055,127.905 223,127.5C 225.289,128.949 227.123,128.449 228.5,126C 226.343,124.915 226.176,123.749 228,122.5C 230.203,125.14 231.037,125.14 230.5,122.5C 234.582,123.376 238.249,125.043 241.5,127.5C 240.07,127.579 238.736,127.246 237.5,126.5C 236.205,127.098 234.872,127.598 233.5,128C 232.547,129.955 231.213,131.622 229.5,133C 231.847,134.086 231.847,135.419 229.5,137C 231.372,138.974 231.705,141.141 230.5,143.5C 228.057,145.055 225.39,145.722 222.5,145.5C 220.345,145.628 218.345,145.128 216.5,144C 198.926,132.934 181.093,122.434 163,112.5C 160.641,112.324 160.141,112.991 161.5,114.5C 160.833,114.5 160.167,114.5 159.5,114.5C 159.5,113.5 159.5,112.5 159.5,111.5C 159.5,110.833 159.833,110.5 160.5,110.5C 170.737,104.644 181.07,98.9777 191.5,93.5 Z"/></g>
<g><path style="opacity:1" fill="#354a6b" d="M 320.5,114.5 C 320.5,114.167 320.5,113.833 320.5,113.5C 323.94,112.302 327.607,111.635 331.5,111.5C 330.368,108.321 329.701,104.988 329.5,101.5C 329.288,98.9886 329.955,96.8219 331.5,95C 330.944,94.6174 330.611,94.1174 330.5,93.5C 336.391,93.4901 340.391,96.4901 342.5,102.5C 347.058,102.72 351.058,104.22 354.5,107C 352.579,107.36 350.912,108.194 349.5,109.5C 348.808,108.975 348.308,108.308 348,107.5C 346.887,108.711 345.72,108.711 344.5,107.5C 343.77,109.341 343.103,111.175 342.5,113C 342.962,114.722 343.128,116.555 343,118.5C 346.004,121.793 345.504,122.127 341.5,119.5C 336.815,122.281 332.482,121.115 328.5,116C 325.883,115.178 323.216,114.678 320.5,114.5 Z"/></g>
<g><path style="opacity:0.922" fill="#192e4c" d="M 297.5,99.5 C 301.241,98.5985 303.241,99.9319 303.5,103.5C 307.785,104.161 311.785,105.494 315.5,107.5C 315.281,108.675 315.614,109.675 316.5,110.5C 318.261,111.035 319.594,112.035 320.5,113.5C 320.5,113.833 320.5,114.167 320.5,114.5C 313.093,110.045 305.593,105.712 298,101.5C 281.915,110.586 266.081,120.086 250.5,130C 265.418,139.249 280.584,148.082 296,156.5C 297.138,156.011 298.305,155.678 299.5,155.5C 298.294,158.139 296.294,158.972 293.5,158C 288.309,154.572 282.976,151.405 277.5,148.5C 268.744,142.947 259.744,137.614 250.5,132.5C 249.833,132.5 249.5,132.167 249.5,131.5C 249.461,130.417 249.127,129.417 248.5,128.5C 256.029,124.908 263.029,120.575 269.5,115.5C 275.794,112.687 281.794,109.353 287.5,105.5C 290.534,102.984 293.868,100.984 297.5,99.5 Z"/></g>
<g><path style="opacity:1" fill="#255994" d="M 261.5,90.5 C 264.32,90.2475 266.986,90.7475 269.5,92C 269.167,92.3333 268.833,92.6667 268.5,93C 270.863,93.5885 271.863,95.0885 271.5,97.5C 273.201,97.9662 274.701,97.9662 276,97.5C 277.582,99.6237 277.749,101.79 276.5,104C 280.06,105.237 283.727,105.737 287.5,105.5C 281.794,109.353 275.794,112.687 269.5,115.5C 266.903,115.279 266.903,114.779 269.5,114C 266.716,109.988 264.049,105.821 261.5,101.5C 260.372,100.738 259.205,100.071 258,99.5C 257.383,98.5509 257.549,97.7175 258.5,97C 256.187,95.4824 253.854,95.3157 251.5,96.5C 254.161,93.4977 257.495,91.4977 261.5,90.5 Z"/></g>
<g><path style="opacity:1" fill="#184074" d="M 269.5,115.5 C 263.029,120.575 256.029,124.908 248.5,128.5C 249.127,129.417 249.461,130.417 249.5,131.5C 246.822,130.166 244.155,128.833 241.5,127.5C 238.249,125.043 234.582,123.376 230.5,122.5C 228.26,120.034 225.593,118.034 222.5,116.5C 222.167,116 221.833,115.5 221.5,115C 222.056,113.989 222.722,113.156 223.5,112.5C 231.192,107.794 238.859,103.127 246.5,98.5C 248.167,97.8333 249.833,97.1667 251.5,96.5C 253.854,95.3157 256.187,95.4824 258.5,97C 257.549,97.7175 257.383,98.5509 258,99.5C 259.205,100.071 260.372,100.738 261.5,101.5C 264.049,105.821 266.716,109.988 269.5,114C 266.903,114.779 266.903,115.279 269.5,115.5 Z"/></g>
<g><path style="opacity:1" fill="#3d4d65" d="M 327.5,87.5 C 331.007,89.754 334.673,91.754 338.5,93.5C 342.833,96.669 347.5,99.3357 352.5,101.5C 357.233,104.89 362.233,107.89 367.5,110.5C 368.936,111.429 370.269,112.595 371.5,114C 370.269,115.405 368.936,116.571 367.5,117.5C 362.148,120.795 356.481,123.629 350.5,126C 347.98,127.697 345.647,129.53 343.5,131.5C 340.515,132.326 337.849,133.659 335.5,135.5C 327.829,139.333 320.496,143.666 313.5,148.5C 312.167,148.833 310.833,149.167 309.5,149.5C 312.586,146.777 315.92,144.277 319.5,142C 327.697,137.738 335.697,133.238 343.5,128.5C 335.603,124.059 327.936,119.392 320.5,114.5C 323.216,114.678 325.883,115.178 328.5,116C 332.482,121.115 336.815,122.281 341.5,119.5C 345.504,122.127 346.004,121.793 343,118.5C 343.128,116.555 342.962,114.722 342.5,113C 343.103,111.175 343.77,109.341 344.5,107.5C 345.72,108.711 346.887,108.711 348,107.5C 348.308,108.308 348.808,108.975 349.5,109.5C 350.912,108.194 352.579,107.36 354.5,107C 351.058,104.22 347.058,102.72 342.5,102.5C 340.391,96.4901 336.391,93.4901 330.5,93.5C 329.096,91.7454 328.096,89.7454 327.5,87.5 Z"/></g>
<g><path style="opacity:1" fill="#2692cf" d="M 223.5,107.5 C 223.5,109.167 223.5,110.833 223.5,112.5C 222.722,113.156 222.056,113.989 221.5,115C 221.833,115.5 222.167,116 222.5,116.5C 225.593,118.034 228.26,120.034 230.5,122.5C 231.037,125.14 230.203,125.14 228,122.5C 226.176,123.749 226.343,124.915 228.5,126C 227.123,128.449 225.289,128.949 223,127.5C 222.055,127.905 221.388,128.572 221,129.5C 219.247,126.995 217.747,124.329 216.5,121.5C 216.709,120.914 217.043,120.414 217.5,120C 215.637,117.636 213.971,115.136 212.5,112.5C 213.626,108.781 212.793,108.114 210,110.5C 208.956,108.285 208.29,105.952 208,103.5C 206.787,109.841 205.954,109.507 205.5,102.5C 202.635,102.945 200.135,102.278 198,100.5C 196.701,101.98 195.034,102.646 193,102.5C 188.937,102.999 187.271,101.333 188,97.5C 189.627,96.4677 190.793,95.1344 191.5,93.5C 194.049,93.6126 196.382,92.9459 198.5,91.5C 200.432,92.1455 201.599,93.4788 202,95.5C 203.13,94.8864 204.463,94.8864 206,95.5C 208.54,94.8146 211.04,93.9813 213.5,93C 212.391,92.3623 211.225,91.8623 210,91.5C 208.121,93.0128 205.954,93.6795 203.5,93.5C 203.34,91.8008 203.506,90.1341 204,88.5C 207.32,86.7092 210.653,85.0426 214,83.5C 215.188,84.5634 215.688,85.8967 215.5,87.5C 217.39,87.2965 218.89,87.9632 220,89.5C 223.022,88.6689 224.522,90.0022 224.5,93.5C 221.801,93.5339 219.301,92.8672 217,91.5C 215.812,92.5634 215.312,93.8967 215.5,95.5C 217.331,96.0522 218.997,96.0522 220.5,95.5C 221.595,99.88 222.595,103.88 223.5,107.5 Z"/></g>
<g><path style="opacity:1" fill="#0e5194" d="M 159.5,114.5 C 160.167,114.5 160.833,114.5 161.5,114.5C 179.09,125.46 197.09,135.626 215.5,145C 219.067,148.08 222.733,150.913 226.5,153.5C 227.254,156.091 228.921,157.924 231.5,159C 230.944,159.383 230.611,159.883 230.5,160.5C 227.306,160.73 224.306,160.064 221.5,158.5C 219.813,158.76 218.313,159.427 217,160.5C 215.294,156.433 212.627,153.1 209,150.5C 208.308,151.025 207.808,151.692 207.5,152.5C 204.833,152.833 202.167,153.167 199.5,153.5C 191.548,152.172 183.548,151.506 175.5,151.5C 175.5,150.5 175.5,149.5 175.5,148.5C 171.393,149.15 167.893,148.15 165,145.5C 163.748,147.001 162.748,148.668 162,150.5C 161.768,149.263 161.268,148.263 160.5,147.5C 160.212,139.29 160.545,131.124 161.5,123C 161.101,121.272 160.434,119.772 159.5,118.5C 159.5,117.167 159.5,115.833 159.5,114.5 Z"/></g>
<g><path style="opacity:1" fill="#d5e2d8" d="M 371.5,76.5 C 373.167,77.1667 374.833,77.8333 376.5,78.5C 379.833,80.8333 383.167,83.1667 386.5,85.5C 381.328,83.1699 378.495,84.8366 378,90.5C 377.667,89.8333 377.333,89.1667 377,88.5C 376.385,90.1161 375.385,91.4495 374,92.5C 373.855,96.0271 373.022,99.3604 371.5,102.5C 371.709,103.086 372.043,103.586 372.5,104C 369.736,105.544 369.903,106.711 373,107.5C 373.306,109.906 374.139,112.073 375.5,114C 374.701,117.407 374.701,120.574 375.5,123.5C 375.818,124.647 376.484,125.481 377.5,126C 376.572,126.388 375.905,127.055 375.5,128C 376.833,129.667 378.167,131.333 379.5,133C 378.048,134.845 376.215,136.345 374,137.5C 372.562,138.9 371.729,140.567 371.5,142.5C 373.167,142.5 374.833,142.5 376.5,142.5C 373.038,145.564 369.038,147.564 364.5,148.5C 363.2,143.198 361.7,137.864 360,132.5C 359.83,129.532 359.664,126.699 359.5,124C 362.693,122.444 365.36,120.277 367.5,117.5C 368.936,116.571 370.269,115.405 371.5,114C 370.269,112.595 368.936,111.429 367.5,110.5C 367.649,109.448 367.483,108.448 367,107.5C 364.034,105.227 360.867,103.227 357.5,101.5C 356.49,96.0249 357.49,90.8582 360.5,86C 359.67,84.5349 359.504,83.0349 360,81.5C 360.333,81.8333 360.667,82.1667 361,82.5C 361.5,80.6667 362.667,79.5 364.5,79C 364.167,78.6667 363.833,78.3333 363.5,78C 364.973,77.2904 365.64,76.1238 365.5,74.5C 367.5,75.1667 369.5,75.8333 371.5,76.5 Z"/></g>
<g><path style="opacity:1" fill="#d8e7e4" d="M 425.5,108.5 C 428.987,109.375 431.321,111.375 432.5,114.5C 422.442,118.698 413.109,124.198 404.5,131C 398.812,133.512 393.145,136.012 387.5,138.5C 387.414,137.504 387.748,136.671 388.5,136C 391.229,135.434 393.229,133.934 394.5,131.5C 396.608,130.763 398.775,130.096 401,129.5C 402.3,127.541 404.133,126.374 406.5,126C 407.743,124.846 408.743,123.512 409.5,122C 416.527,119.97 422.86,116.637 428.5,112C 426.574,111.578 425.574,110.411 425.5,108.5 Z"/></g>
<g><path style="opacity:1" fill="#4f7eab" d="M 432.5,114.5 C 432.832,125.52 432.499,136.52 431.5,147.5C 429.301,144.436 427.635,141.102 426.5,137.5C 422.281,136.947 418.281,135.78 414.5,134C 416.645,132.182 416.645,130.682 414.5,129.5C 413.522,129.977 412.689,130.643 412,131.5C 410.887,130.289 409.72,130.289 408.5,131.5C 407.968,134.171 407.968,136.671 408.5,139C 409.167,139.333 409.833,139.667 410.5,140C 406.138,142.332 401.638,143.166 397,142.5C 393.911,145.043 390.744,145.043 387.5,142.5C 386.583,143.127 385.583,143.461 384.5,143.5C 384.833,142.833 385.167,142.167 385.5,141.5C 386.167,140.5 386.833,139.5 387.5,138.5C 393.145,136.012 398.812,133.512 404.5,131C 413.109,124.198 422.442,118.698 432.5,114.5 Z"/></g>
<g><path style="opacity:1" fill="#2892cd" d="M 241.5,127.5 C 244.155,128.833 246.822,130.166 249.5,131.5C 249.5,132.167 249.833,132.5 250.5,132.5C 250.83,135.109 252.33,136.776 255,137.5C 255.749,138.635 255.583,139.635 254.5,140.5C 251.076,138.705 247.576,137.038 244,135.5C 242.605,137.112 241.105,138.612 239.5,140C 239.833,140.5 240.167,141 240.5,141.5C 242.059,140.553 243.726,139.887 245.5,139.5C 247.709,140.917 250.043,142.084 252.5,143C 251.5,143.333 250.5,143.667 249.5,144C 251.473,144.495 253.473,144.662 255.5,144.5C 256.145,147.547 255.145,149.713 252.5,151C 255.519,153.147 255.852,155.481 253.5,158C 255.192,159.401 255.859,161.234 255.5,163.5C 253.09,162.617 250.757,161.45 248.5,160C 246.866,159.506 245.199,159.34 243.5,159.5C 240.082,157.915 237.082,155.749 234.5,153C 229.634,151.741 225.634,149.241 222.5,145.5C 225.39,145.722 228.057,145.055 230.5,143.5C 231.705,141.141 231.372,138.974 229.5,137C 231.847,135.419 231.847,134.086 229.5,133C 231.213,131.622 232.547,129.955 233.5,128C 234.872,127.598 236.205,127.098 237.5,126.5C 238.736,127.246 240.07,127.579 241.5,127.5 Z"/></g>
<g><path style="opacity:1" fill="#3f71a2" d="M 432.5,114.5 C 432.833,114.5 433.167,114.5 433.5,114.5C 433.5,139.833 433.5,165.167 433.5,190.5C 433.167,190.5 432.833,190.5 432.5,190.5C 432.5,189.5 432.5,188.5 432.5,187.5C 432.726,180.124 432.392,172.791 431.5,165.5C 428.387,165.935 427.721,164.935 429.5,162.5C 429.547,161 428.881,160 427.5,159.5C 425.167,161.5 422.833,163.5 420.5,165.5C 417.794,163.025 415.96,160.025 415,156.5C 412.437,156.494 409.937,156.994 407.5,158C 408.516,158.519 409.182,159.353 409.5,160.5C 408.56,168.798 408.226,177.131 408.5,185.5C 407.6,203.482 407.266,221.482 407.5,239.5C 407.824,246.354 407.491,253.021 406.5,259.5C 406.534,227.825 406.701,196.158 407,164.5C 406.768,163.263 406.268,162.263 405.5,161.5C 399.044,163.066 393.377,166.233 388.5,171C 385.128,172.019 382.128,173.519 379.5,175.5C 378.167,175.5 377.5,176.167 377.5,177.5C 376.5,177.5 375.5,177.5 374.5,177.5C 375.342,172.625 378.342,170.625 383.5,171.5C 384.766,170.91 386.099,170.41 387.5,170C 388.447,167.012 390.447,164.345 393.5,162C 394.448,161.517 395.448,161.351 396.5,161.5C 396.579,160.07 396.246,158.736 395.5,157.5C 396.729,156.719 398.062,156.219 399.5,156C 398.692,155.692 398.025,155.192 397.5,154.5C 393.807,154.92 390.14,154.42 386.5,153C 387.672,152.581 388.672,151.915 389.5,151C 387.744,150.798 386.078,150.298 384.5,149.5C 385.491,147.877 384.824,146.877 382.5,146.5C 380.021,148.076 377.354,149.076 374.5,149.5C 377.21,146.583 380.543,144.583 384.5,143.5C 385.583,143.461 386.583,143.127 387.5,142.5C 390.744,145.043 393.911,145.043 397,142.5C 401.638,143.166 406.138,142.332 410.5,140C 409.833,139.667 409.167,139.333 408.5,139C 407.968,136.671 407.968,134.171 408.5,131.5C 409.72,130.289 410.887,130.289 412,131.5C 412.689,130.643 413.522,129.977 414.5,129.5C 416.645,130.682 416.645,132.182 414.5,134C 418.281,135.78 422.281,136.947 426.5,137.5C 427.635,141.102 429.301,144.436 431.5,147.5C 432.499,136.52 432.832,125.52 432.5,114.5 Z"/></g>
<g><path style="opacity:1" fill="#2f98cd" d="M 250.5,132.5 C 259.744,137.614 268.744,142.947 277.5,148.5C 274.185,147.836 270.852,147.169 267.5,146.5C 266.135,148.059 263.801,149.059 260.5,149.5C 264.304,149.806 266.47,151.806 267,155.5C 268.881,157.825 270.548,157.825 272,155.5C 274.826,156.917 274.993,158.417 272.5,160C 273,161.5 273.5,163 274,164.5C 274.725,163.941 275.558,163.608 276.5,163.5C 279.401,164.814 282.401,165.98 285.5,167C 283.5,167.333 281.5,167.667 279.5,168C 282.187,168.341 284.187,169.674 285.5,172C 284.391,173.813 285.058,174.646 287.5,174.5C 287.78,177.388 286.447,178.888 283.5,179C 283.833,179.333 284.167,179.667 284.5,180C 282.866,180.494 281.199,180.66 279.5,180.5C 277.145,179.906 274.978,178.906 273,177.5C 272.235,177.57 271.735,177.903 271.5,178.5C 268.911,178.539 266.911,177.539 265.5,175.5C 267.137,176.218 268.803,176.384 270.5,176C 261.427,170.471 252.427,164.971 243.5,159.5C 245.199,159.34 246.866,159.506 248.5,160C 250.757,161.45 253.09,162.617 255.5,163.5C 255.859,161.234 255.192,159.401 253.5,158C 255.852,155.481 255.519,153.147 252.5,151C 255.145,149.713 256.145,147.547 255.5,144.5C 253.473,144.662 251.473,144.495 249.5,144C 250.5,143.667 251.5,143.333 252.5,143C 250.043,142.084 247.709,140.917 245.5,139.5C 243.726,139.887 242.059,140.553 240.5,141.5C 240.167,141 239.833,140.5 239.5,140C 241.105,138.612 242.605,137.112 244,135.5C 247.576,137.038 251.076,138.705 254.5,140.5C 255.583,139.635 255.749,138.635 255,137.5C 252.33,136.776 250.83,135.109 250.5,132.5 Z"/></g>
<g><path style="opacity:1" fill="#699dbc" d="M 385.5,141.5 C 385.167,142.167 384.833,142.833 384.5,143.5C 380.543,144.583 377.21,146.583 374.5,149.5C 372.958,150.301 371.292,150.634 369.5,150.5C 374.177,146.491 379.511,143.491 385.5,141.5 Z"/></g>
<g><path style="opacity:1" fill="#b7d4d6" d="M 367.5,117.5 C 365.36,120.277 362.693,122.444 359.5,124C 359.664,126.699 359.83,129.532 360,132.5C 361.7,137.864 363.2,143.198 364.5,148.5C 369.038,147.564 373.038,145.564 376.5,142.5C 379.652,140.014 383.319,138.681 387.5,138.5C 386.833,139.5 386.167,140.5 385.5,141.5C 379.511,143.491 374.177,146.491 369.5,150.5C 366.183,152.137 362.85,153.804 359.5,155.5C 356.37,155.401 353.704,154.234 351.5,152C 351.833,151.667 352.167,151.333 352.5,151C 349.308,145.257 347.642,139.09 347.5,132.5C 345.901,132.768 344.568,132.434 343.5,131.5C 345.647,129.53 347.98,127.697 350.5,126C 356.481,123.629 362.148,120.795 367.5,117.5 Z"/></g>
<g><path style="opacity:1" fill="#8fc7d5" d="M 343.5,131.5 C 344.568,132.434 345.901,132.768 347.5,132.5C 347.642,139.09 349.308,145.257 352.5,151C 352.167,151.333 351.833,151.667 351.5,152C 353.704,154.234 356.37,155.401 359.5,155.5C 354.455,159.195 349.122,162.528 343.5,165.5C 340.951,165.387 338.618,166.054 336.5,167.5C 336.167,167.167 335.833,166.833 335.5,166.5C 336.325,165.614 337.325,165.281 338.5,165.5C 338.851,163.131 339.018,160.797 339,158.5C 338.667,159.167 338.333,159.833 338,160.5C 336.747,155.656 335.58,150.822 334.5,146C 334.34,143.53 335.007,141.364 336.5,139.5C 335.975,138.808 335.308,138.308 334.5,138C 335.252,137.329 335.586,136.496 335.5,135.5C 337.849,133.659 340.515,132.326 343.5,131.5 Z"/></g>
<g><path style="opacity:1" fill="#6bb9d7" d="M 335.5,135.5 C 335.586,136.496 335.252,137.329 334.5,138C 335.308,138.308 335.975,138.808 336.5,139.5C 335.007,141.364 334.34,143.53 334.5,146C 335.58,150.822 336.747,155.656 338,160.5C 338.333,159.833 338.667,159.167 339,158.5C 339.018,160.797 338.851,163.131 338.5,165.5C 337.325,165.281 336.325,165.614 335.5,166.5C 335.833,166.833 336.167,167.167 336.5,167.5C 338.618,166.054 340.951,165.387 343.5,165.5C 333.633,171.262 323.966,177.262 314.5,183.5C 310.665,185.25 306.999,187.25 303.5,189.5C 302.224,188.614 302.224,187.614 303.5,186.5C 307.061,184.221 310.727,182.221 314.5,180.5C 318.304,177.761 322.304,175.261 326.5,173C 326.382,170.35 327.382,167.85 329.5,165.5C 325.617,161.736 323.45,157.403 323,152.5C 321.581,151.54 320.081,150.707 318.5,150C 318.957,149.586 319.291,149.086 319.5,148.5C 317.674,148.08 315.674,148.08 313.5,148.5C 320.496,143.666 327.829,139.333 335.5,135.5 Z"/></g>
<g><path style="opacity:0.196" fill="#173148" d="M 309.5,149.5 C 307.191,151.987 304.524,153.987 301.5,155.5C 300.833,155.5 300.167,155.5 299.5,155.5C 302.494,153 305.827,151 309.5,149.5 Z"/></g>
<g><path style="opacity:1" fill="#379fcf" d="M 277.5,148.5 C 282.976,151.405 288.309,154.572 293.5,158C 296.294,158.972 298.294,158.139 299.5,155.5C 300.167,155.5 300.833,155.5 301.5,155.5C 299.772,158.437 297.106,160.103 293.5,160.5C 297.239,162.534 301.239,163.701 305.5,164C 304.692,164.308 304.025,164.808 303.5,165.5C 307.85,166.168 311.016,168.501 313,172.5C 312.848,174.076 312.015,175.409 310.5,176.5C 309.167,177.167 307.833,177.833 306.5,178.5C 307.167,178.833 307.833,179.167 308.5,179.5C 310.325,178.349 312.325,177.682 314.5,177.5C 314.5,178.5 314.5,179.5 314.5,180.5C 310.727,182.221 307.061,184.221 303.5,186.5C 302.224,187.614 302.224,188.614 303.5,189.5C 303.5,189.833 303.5,190.167 303.5,190.5C 302.609,191.11 301.609,191.443 300.5,191.5C 301.562,190.425 301.562,189.425 300.5,188.5C 298.809,190.256 296.809,190.756 294.5,190C 289.097,187.308 284.097,184.142 279.5,180.5C 281.199,180.66 282.866,180.494 284.5,180C 284.167,179.667 283.833,179.333 283.5,179C 286.447,178.888 287.78,177.388 287.5,174.5C 285.058,174.646 284.391,173.813 285.5,172C 284.187,169.674 282.187,168.341 279.5,168C 281.5,167.667 283.5,167.333 285.5,167C 282.401,165.98 279.401,164.814 276.5,163.5C 275.558,163.608 274.725,163.941 274,164.5C 273.5,163 273,161.5 272.5,160C 274.993,158.417 274.826,156.917 272,155.5C 270.548,157.825 268.881,157.825 267,155.5C 266.47,151.806 264.304,149.806 260.5,149.5C 263.801,149.059 266.135,148.059 267.5,146.5C 270.852,147.169 274.185,147.836 277.5,148.5 Z"/></g>
<g><path style="opacity:1" fill="#49a9d0" d="M 314.5,180.5 C 314.5,179.5 314.5,178.5 314.5,177.5C 312.325,177.682 310.325,178.349 308.5,179.5C 307.833,179.167 307.167,178.833 306.5,178.5C 307.833,177.833 309.167,177.167 310.5,176.5C 312.015,175.409 312.848,174.076 313,172.5C 311.016,168.501 307.85,166.168 303.5,165.5C 304.025,164.808 304.692,164.308 305.5,164C 301.239,163.701 297.239,162.534 293.5,160.5C 297.106,160.103 299.772,158.437 301.5,155.5C 304.524,153.987 307.191,151.987 309.5,149.5C 310.833,149.167 312.167,148.833 313.5,148.5C 315.674,148.08 317.674,148.08 319.5,148.5C 319.291,149.086 318.957,149.586 318.5,150C 320.081,150.707 321.581,151.54 323,152.5C 323.45,157.403 325.617,161.736 329.5,165.5C 327.382,167.85 326.382,170.35 326.5,173C 322.304,175.261 318.304,177.761 314.5,180.5 Z"/></g>
<g><path style="opacity:1" fill="#4fa7d8" d="M 222.5,145.5 C 225.634,149.241 229.634,151.741 234.5,153C 237.082,155.749 240.082,157.915 243.5,159.5C 252.427,164.971 261.427,170.471 270.5,176C 268.803,176.384 267.137,176.218 265.5,175.5C 264.448,175.649 263.448,175.483 262.5,175C 250.908,167.042 238.908,159.875 226.5,153.5C 222.733,150.913 219.067,148.08 215.5,145C 197.09,135.626 179.09,125.46 161.5,114.5C 160.141,112.991 160.641,112.324 163,112.5C 181.093,122.434 198.926,132.934 216.5,144C 218.345,145.128 220.345,145.628 222.5,145.5 Z"/></g>
<g><path style="opacity:1" fill="#3779b2" d="M 383.5,171.5 C 383.351,170.448 383.517,169.448 384,168.5C 389.79,165.97 389.79,163.637 384,161.5C 383.506,163.134 383.34,164.801 383.5,166.5C 380.728,166.78 378.228,166.113 376,164.5C 373.163,166.585 370.163,166.919 367,165.5C 365.333,168.167 363.667,168.167 362,165.5C 360.598,167.973 359.098,167.973 357.5,165.5C 355.519,166.105 355.185,167.105 356.5,168.5C 353.076,172.648 348.91,174.315 344,173.5C 343.667,174.167 343.333,174.833 343,175.5C 340.772,173.887 338.272,173.22 335.5,173.5C 336.255,171.534 337.421,171.2 339,172.5C 340.734,168.927 343.568,167.26 347.5,167.5C 347.33,166.178 347.663,165.011 348.5,164C 351.339,162.343 354.339,161.01 357.5,160C 361.721,156.915 365.721,153.748 369.5,150.5C 371.292,150.634 372.958,150.301 374.5,149.5C 377.354,149.076 380.021,148.076 382.5,146.5C 384.824,146.877 385.491,147.877 384.5,149.5C 386.078,150.298 387.744,150.798 389.5,151C 388.672,151.915 387.672,152.581 386.5,153C 390.14,154.42 393.807,154.92 397.5,154.5C 398.025,155.192 398.692,155.692 399.5,156C 398.062,156.219 396.729,156.719 395.5,157.5C 396.246,158.736 396.579,160.07 396.5,161.5C 395.448,161.351 394.448,161.517 393.5,162C 390.447,164.345 388.447,167.012 387.5,170C 386.099,170.41 384.766,170.91 383.5,171.5 Z"/></g>
<g><path style="opacity:1" fill="#0e4784" d="M 159.5,118.5 C 160.434,119.772 161.101,121.272 161.5,123C 160.545,131.124 160.212,139.29 160.5,147.5C 160.5,148.833 160.5,150.167 160.5,151.5C 160.5,154.167 160.5,156.833 160.5,159.5C 163.5,159.5 166.5,159.5 169.5,159.5C 169.37,162.237 170.536,164.237 173,165.5C 175.245,163.378 177.912,162.044 181,161.5C 182.89,161.785 184.223,162.785 185,164.5C 186.145,163.316 187.312,163.316 188.5,164.5C 189.209,175.486 189.543,186.486 189.5,197.5C 188.691,195.708 188.191,193.708 188,191.5C 187.827,197.348 187.327,203.015 186.5,208.5C 186.5,208.167 186.5,207.833 186.5,207.5C 186.88,196.73 186.047,186.063 184,175.5C 182.413,176.727 181.079,176.394 180,174.5C 177.631,175.927 177.131,177.761 178.5,180C 177.975,180.692 177.308,181.192 176.5,181.5C 175.062,179.401 174.395,177.401 174.5,175.5C 172.156,176.337 170.156,177.671 168.5,179.5C 166.232,178.456 163.899,178.289 161.5,179C 160.54,182.73 160.207,186.563 160.5,190.5C 160.167,190.5 159.833,190.5 159.5,190.5C 159.5,166.5 159.5,142.5 159.5,118.5 Z"/></g>
<g><path style="opacity:1" fill="#0d4a89" d="M 160.5,151.5 C 162.698,152.014 164.698,153.014 166.5,154.5C 168.768,153.456 171.101,153.289 173.5,154C 176.308,157.131 179.308,157.631 182.5,155.5C 184.428,157.05 186.261,158.717 188,160.5C 189.715,160.48 191.548,159.814 193.5,158.5C 195.523,159.54 197.523,160.54 199.5,161.5C 200.442,161.392 201.275,161.059 202,160.5C 203.167,162.333 204.333,164.167 205.5,166C 207.425,165.865 209.425,165.698 211.5,165.5C 211.729,167.433 212.562,169.1 214,170.5C 214.333,170.167 214.667,169.833 215,169.5C 216.427,171.787 218.261,172.12 220.5,170.5C 221.386,169.675 221.719,168.675 221.5,167.5C 224.857,167.106 227.19,168.439 228.5,171.5C 230.209,169.29 232.209,169.123 234.5,171C 233.371,173.168 231.871,173.668 230,172.5C 229.506,174.134 229.34,175.801 229.5,177.5C 238.636,178.192 245.303,182.525 249.5,190.5C 251.783,190.608 253.783,191.441 255.5,193C 253.808,194.401 253.141,196.234 253.5,198.5C 248.406,195.923 243.406,193.089 238.5,190C 237.207,189.51 235.873,189.343 234.5,189.5C 230.827,188 227.494,186 224.5,183.5C 222.37,180.263 219.37,178.263 215.5,177.5C 209.08,173.787 202.414,170.287 195.5,167C 193.845,163.838 191.512,163.005 188.5,164.5C 187.312,163.316 186.145,163.316 185,164.5C 184.223,162.785 182.89,161.785 181,161.5C 177.912,162.044 175.245,163.378 173,165.5C 170.536,164.237 169.37,162.237 169.5,159.5C 166.5,159.5 163.5,159.5 160.5,159.5C 160.5,156.833 160.5,154.167 160.5,151.5 Z"/></g>
<g><path style="opacity:1" fill="#0e4e8f" d="M 230.5,160.5 C 231.451,161.919 231.784,163.585 231.5,165.5C 233.901,166.049 236.235,166.882 238.5,168C 237.833,168.333 237.167,168.667 236.5,169C 237.376,170.585 238.709,171.585 240.5,172C 238.993,172.837 238.493,174.004 239,175.5C 241.64,177.32 244.473,178.654 247.5,179.5C 247.5,178.5 247.5,177.5 247.5,176.5C 246.5,176.5 245.5,176.5 244.5,176.5C 244.222,174.654 244.889,173.32 246.5,172.5C 249.505,174.671 252.839,176.171 256.5,177C 254.294,179.209 253.96,181.709 255.5,184.5C 258.214,187.215 261.214,189.549 264.5,191.5C 264.069,192.293 263.735,193.127 263.5,194C 265.346,195.091 266.013,196.424 265.5,198C 264.437,199.188 263.103,199.688 261.5,199.5C 261.878,201.921 262.545,204.254 263.5,206.5C 260.489,205.331 257.822,203.664 255.5,201.5C 254.833,200.5 254.167,199.5 253.5,198.5C 253.141,196.234 253.808,194.401 255.5,193C 253.783,191.441 251.783,190.608 249.5,190.5C 245.303,182.525 238.636,178.192 229.5,177.5C 229.34,175.801 229.506,174.134 230,172.5C 231.871,173.668 233.371,173.168 234.5,171C 232.209,169.123 230.209,169.29 228.5,171.5C 227.19,168.439 224.857,167.106 221.5,167.5C 221.719,168.675 221.386,169.675 220.5,170.5C 218.261,172.12 216.427,171.787 215,169.5C 214.667,169.833 214.333,170.167 214,170.5C 212.562,169.1 211.729,167.433 211.5,165.5C 209.425,165.698 207.425,165.865 205.5,166C 204.333,164.167 203.167,162.333 202,160.5C 201.275,161.059 200.442,161.392 199.5,161.5C 197.523,160.54 195.523,159.54 193.5,158.5C 191.548,159.814 189.715,160.48 188,160.5C 186.261,158.717 184.428,157.05 182.5,155.5C 179.308,157.631 176.308,157.131 173.5,154C 171.101,153.289 168.768,153.456 166.5,154.5C 164.698,153.014 162.698,152.014 160.5,151.5C 160.5,150.167 160.5,148.833 160.5,147.5C 161.268,148.263 161.768,149.263 162,150.5C 162.748,148.668 163.748,147.001 165,145.5C 167.893,148.15 171.393,149.15 175.5,148.5C 175.5,149.5 175.5,150.5 175.5,151.5C 183.548,151.506 191.548,152.172 199.5,153.5C 202.167,153.167 204.833,152.833 207.5,152.5C 207.808,151.692 208.308,151.025 209,150.5C 212.627,153.1 215.294,156.433 217,160.5C 218.313,159.427 219.813,158.76 221.5,158.5C 224.306,160.064 227.306,160.73 230.5,160.5 Z"/></g>
<g><path style="opacity:1" fill="#3168a2" d="M 432.5,187.5 C 431.778,187.918 431.278,188.584 431,189.5C 430.082,187.368 428.749,186.701 427,187.5C 425.681,185.75 425.181,183.75 425.5,181.5C 422.453,180.855 420.287,181.855 419,184.5C 418.632,183.09 417.799,182.09 416.5,181.5C 415.686,183.766 415.186,186.1 415,188.5C 413.173,184.735 412.673,180.902 413.5,177C 412.333,176.5 411.5,175.667 411,174.5C 409.907,178.169 409.074,181.836 408.5,185.5C 408.226,177.131 408.56,168.798 409.5,160.5C 409.182,159.353 408.516,158.519 407.5,158C 409.937,156.994 412.437,156.494 415,156.5C 415.96,160.025 417.794,163.025 420.5,165.5C 422.833,163.5 425.167,161.5 427.5,159.5C 428.881,160 429.547,161 429.5,162.5C 427.721,164.935 428.387,165.935 431.5,165.5C 432.392,172.791 432.726,180.124 432.5,187.5 Z"/></g>
<g><path style="opacity:1" fill="#3d88b8" d="M 369.5,150.5 C 365.721,153.748 361.721,156.915 357.5,160C 354.339,161.01 351.339,162.343 348.5,164C 347.663,165.011 347.33,166.178 347.5,167.5C 343.568,167.26 340.734,168.927 339,172.5C 337.421,171.2 336.255,171.534 335.5,173.5C 333.549,174.282 332.049,175.616 331,177.5C 330.282,176.549 329.449,176.383 328.5,177C 327,178.5 325.5,180 324,181.5C 323.667,181.167 323.333,180.833 323,180.5C 320.273,181.798 317.44,182.798 314.5,183.5C 323.966,177.262 333.633,171.262 343.5,165.5C 349.122,162.528 354.455,159.195 359.5,155.5C 362.85,153.804 366.183,152.137 369.5,150.5 Z"/></g>
<g><path style="opacity:1" fill="#2a466a" d="M 405.5,161.5 C 405.5,174.5 405.5,187.5 405.5,200.5C 404.523,197.713 404.19,194.713 404.5,191.5C 400.345,190.446 396.178,189.446 392,188.5C 390.301,189.406 388.467,189.739 386.5,189.5C 386.47,186.148 385.137,183.482 382.5,181.5C 382.5,179.5 382.5,177.5 382.5,175.5C 381.5,175.5 380.5,175.5 379.5,175.5C 382.128,173.519 385.128,172.019 388.5,171C 393.377,166.233 399.044,163.066 405.5,161.5 Z"/></g>
<g><path style="opacity:1" fill="#105597" d="M 226.5,153.5 C 238.908,159.875 250.908,167.042 262.5,175C 263.448,175.483 264.448,175.649 265.5,175.5C 266.911,177.539 268.911,178.539 271.5,178.5C 277.989,183.582 284.989,187.915 292.5,191.5C 292.5,191.833 292.5,192.167 292.5,192.5C 292.827,197.544 292.494,202.544 291.5,207.5C 289.938,210.963 289.105,214.63 289,218.5C 287.851,215.607 287.351,212.607 287.5,209.5C 284.348,208.959 281.848,209.959 280,212.5C 279.56,210.924 278.727,209.59 277.5,208.5C 278.811,207.742 279.311,206.742 279,205.5C 277.951,206.517 276.784,206.684 275.5,206C 276.563,204.812 277.897,204.312 279.5,204.5C 279.5,203.5 279.5,202.5 279.5,201.5C 276.193,201.937 273.193,201.27 270.5,199.5C 269.05,200.655 268.05,202.155 267.5,204C 268.793,204.49 270.127,204.657 271.5,204.5C 271.715,206.179 271.048,207.179 269.5,207.5C 267.565,206.85 265.565,206.517 263.5,206.5C 262.545,204.254 261.878,201.921 261.5,199.5C 263.103,199.688 264.437,199.188 265.5,198C 266.013,196.424 265.346,195.091 263.5,194C 263.735,193.127 264.069,192.293 264.5,191.5C 261.214,189.549 258.214,187.215 255.5,184.5C 253.96,181.709 254.294,179.209 256.5,177C 252.839,176.171 249.505,174.671 246.5,172.5C 244.889,173.32 244.222,174.654 244.5,176.5C 245.5,176.5 246.5,176.5 247.5,176.5C 247.5,177.5 247.5,178.5 247.5,179.5C 244.473,178.654 241.64,177.32 239,175.5C 238.493,174.004 238.993,172.837 240.5,172C 238.709,171.585 237.376,170.585 236.5,169C 237.167,168.667 237.833,168.333 238.5,168C 236.235,166.882 233.901,166.049 231.5,165.5C 231.784,163.585 231.451,161.919 230.5,160.5C 230.611,159.883 230.944,159.383 231.5,159C 228.921,157.924 227.254,156.091 226.5,153.5 Z"/></g>
<g><path style="opacity:1" fill="#2973b2" d="M 383.5,171.5 C 378.342,170.625 375.342,172.625 374.5,177.5C 369.045,180.716 363.712,184.216 358.5,188C 356.146,188.847 353.812,189.68 351.5,190.5C 351.5,189.5 351.5,188.5 351.5,187.5C 352.978,187.762 354.311,187.429 355.5,186.5C 354.05,185.15 353.383,183.484 353.5,181.5C 355.167,181.5 356.833,181.5 358.5,181.5C 358.845,178.512 357.512,177.179 354.5,177.5C 351.488,177.179 350.155,178.512 350.5,181.5C 347.901,181.451 345.734,180.451 344,178.5C 342.203,179.999 340.369,181.499 338.5,183C 336.432,183.687 334.432,183.52 332.5,182.5C 331.497,184.542 330.163,184.875 328.5,183.5C 325.684,184.018 323.018,184.851 320.5,186C 321.623,187.044 322.956,187.71 324.5,188C 325.696,188.654 325.696,189.154 324.5,189.5C 323.707,189.069 322.873,188.735 322,188.5C 320.503,189.477 319.003,190.477 317.5,191.5C 312.889,191.8 308.222,191.467 303.5,190.5C 303.5,190.167 303.5,189.833 303.5,189.5C 306.999,187.25 310.665,185.25 314.5,183.5C 317.44,182.798 320.273,181.798 323,180.5C 323.333,180.833 323.667,181.167 324,181.5C 325.5,180 327,178.5 328.5,177C 329.449,176.383 330.282,176.549 331,177.5C 332.049,175.616 333.549,174.282 335.5,173.5C 338.272,173.22 340.772,173.887 343,175.5C 343.333,174.833 343.667,174.167 344,173.5C 348.91,174.315 353.076,172.648 356.5,168.5C 355.185,167.105 355.519,166.105 357.5,165.5C 359.098,167.973 360.598,167.973 362,165.5C 363.667,168.167 365.333,168.167 367,165.5C 370.163,166.919 373.163,166.585 376,164.5C 378.228,166.113 380.728,166.78 383.5,166.5C 383.34,164.801 383.506,163.134 384,161.5C 389.79,163.637 389.79,165.97 384,168.5C 383.517,169.448 383.351,170.448 383.5,171.5 Z"/></g>
<g><path style="opacity:1" fill="#216db0" d="M 351.5,190.5 C 348.15,190.665 344.817,190.498 341.5,190C 340.333,189.5 339.5,188.667 339,187.5C 335.669,190.921 331.835,192.754 327.5,193C 325.473,194.396 325.14,196.062 326.5,198C 325.833,199.333 324.833,200.333 323.5,201C 323.833,201.333 324.167,201.667 324.5,202C 321.937,202.154 319.437,201.654 317,200.5C 314.774,200.978 312.608,201.645 310.5,202.5C 311.246,203.736 311.579,205.07 311.5,206.5C 308.253,207.428 305.087,207.762 302,207.5C 300.417,211.86 299.25,216.194 298.5,220.5C 298.334,211.494 298.5,202.494 299,193.5C 299.717,192.956 300.217,192.289 300.5,191.5C 301.609,191.443 302.609,191.11 303.5,190.5C 308.222,191.467 312.889,191.8 317.5,191.5C 319.003,190.477 320.503,189.477 322,188.5C 322.873,188.735 323.707,189.069 324.5,189.5C 325.696,189.154 325.696,188.654 324.5,188C 322.956,187.71 321.623,187.044 320.5,186C 323.018,184.851 325.684,184.018 328.5,183.5C 330.163,184.875 331.497,184.542 332.5,182.5C 334.432,183.52 336.432,183.687 338.5,183C 340.369,181.499 342.203,179.999 344,178.5C 345.734,180.451 347.901,181.451 350.5,181.5C 350.155,178.512 351.488,177.179 354.5,177.5C 357.512,177.179 358.845,178.512 358.5,181.5C 356.833,181.5 355.167,181.5 353.5,181.5C 353.383,183.484 354.05,185.15 355.5,186.5C 354.311,187.429 352.978,187.762 351.5,187.5C 351.5,188.5 351.5,189.5 351.5,190.5 Z"/></g>
<g><path style="opacity:1" fill="#28609f" d="M 432.5,187.5 C 432.5,188.5 432.5,189.5 432.5,190.5C 432.5,198.833 432.5,207.167 432.5,215.5C 431.25,215.577 430.417,216.244 430,217.5C 427.969,214.46 427.469,211.293 428.5,208C 426.383,206.267 424.883,204.1 424,201.5C 421.544,203.321 418.711,203.988 415.5,203.5C 415.509,201.692 415.009,200.025 414,198.5C 413.667,199.833 413.333,201.167 413,202.5C 412.275,200.051 411.275,197.717 410,195.5C 409.005,210.312 408.172,224.978 407.5,239.5C 407.266,221.482 407.6,203.482 408.5,185.5C 409.074,181.836 409.907,178.169 411,174.5C 411.5,175.667 412.333,176.5 413.5,177C 412.673,180.902 413.173,184.735 415,188.5C 415.186,186.1 415.686,183.766 416.5,181.5C 417.799,182.09 418.632,183.09 419,184.5C 420.287,181.855 422.453,180.855 425.5,181.5C 425.181,183.75 425.681,185.75 427,187.5C 428.749,186.701 430.082,187.368 431,189.5C 431.278,188.584 431.778,187.918 432.5,187.5 Z"/></g>
<g><path style="opacity:0.171" fill="#344050" d="M 433.5,110.5 C 434.997,112.29 435.664,114.456 435.5,117C 434.539,144.486 434.205,171.986 434.5,199.5C 434.167,199.5 433.833,199.5 433.5,199.5C 433.5,196.5 433.5,193.5 433.5,190.5C 433.5,165.167 433.5,139.833 433.5,114.5C 433.5,113.167 433.5,111.833 433.5,110.5 Z"/></g>
<g><path style="opacity:1" fill="#0a3e7b" d="M 186.5,207.5 C 185.71,206.391 185.21,205.058 185,203.5C 184.883,206.629 183.383,207.795 180.5,207C 181.535,205.493 181.368,203.993 180,202.5C 179.667,203.833 179.333,205.167 179,206.5C 177.732,206.616 176.398,206.949 175,207.5C 174.773,204.94 173.44,203.274 171,202.5C 170.51,201.207 170.343,199.873 170.5,198.5C 166.944,198.275 166.61,199.108 169.5,201C 168.66,202.171 167.827,203.338 167,204.5C 165.329,202.724 163.496,202.39 161.5,203.5C 160.508,199.217 160.174,194.884 160.5,190.5C 160.207,186.563 160.54,182.73 161.5,179C 163.899,178.289 166.232,178.456 168.5,179.5C 170.156,177.671 172.156,176.337 174.5,175.5C 174.395,177.401 175.062,179.401 176.5,181.5C 177.308,181.192 177.975,180.692 178.5,180C 177.131,177.761 177.631,175.927 180,174.5C 181.079,176.394 182.413,176.727 184,175.5C 186.047,186.063 186.88,196.73 186.5,207.5 Z"/></g>
<g><path style="opacity:1" fill="#0c2c59" d="M 215.5,177.5 C 213.983,177.511 212.816,178.177 212,179.5C 211.881,188.918 211.715,198.251 211.5,207.5C 206.338,207.306 201.338,207.306 196.5,207.5C 194.653,206.489 192.82,205.489 191,204.5C 190.819,207.695 190.319,210.695 189.5,213.5C 189.5,208.167 189.5,202.833 189.5,197.5C 189.543,186.486 189.209,175.486 188.5,164.5C 191.512,163.005 193.845,163.838 195.5,167C 202.414,170.287 209.08,173.787 215.5,177.5 Z"/></g>
<g><path style="opacity:0.365" fill="#1b3250" d="M 374.5,177.5 C 375.5,177.5 376.5,177.5 377.5,177.5C 368.171,184.503 358.171,190.503 347.5,195.5C 348.474,193.52 349.807,191.853 351.5,190.5C 353.812,189.68 356.146,188.847 358.5,188C 363.712,184.216 369.045,180.716 374.5,177.5 Z"/></g>
<g><path style="opacity:0.216" fill="#082248" d="M 234.5,189.5 C 235.873,189.343 237.207,189.51 238.5,190C 243.406,193.089 248.406,195.923 253.5,198.5C 254.167,199.5 254.833,200.5 255.5,201.5C 248.004,198.255 241.004,194.255 234.5,189.5 Z"/></g>
<g><path style="opacity:1" fill="#38648c" d="M 405.5,161.5 C 406.268,162.263 406.768,163.263 407,164.5C 406.701,196.158 406.534,227.825 406.5,259.5C 406.5,260.167 406.167,260.5 405.5,260.5C 404.791,259.596 403.791,259.263 402.5,259.5C 402.5,259.167 402.5,258.833 402.5,258.5C 403.5,258.5 404.5,258.5 405.5,258.5C 405.5,239.167 405.5,219.833 405.5,200.5C 405.5,187.5 405.5,174.5 405.5,161.5 Z"/></g>
<g><path style="opacity:1" fill="#1d66aa" d="M 351.5,190.5 C 349.807,191.853 348.474,193.52 347.5,195.5C 345.073,195.523 342.74,196.023 340.5,197C 334.968,201.267 328.968,204.767 322.5,207.5C 320.838,209.912 319.838,212.746 319.5,216C 318.451,216.492 317.451,216.326 316.5,215.5C 315.481,216.687 314.314,217.687 313,218.5C 313.077,217.262 312.911,216.262 312.5,215.5C 311.052,222.078 309.885,222.078 309,215.5C 307.697,219.639 306.864,223.639 306.5,227.5C 305.738,226.372 305.071,225.205 304.5,224C 305.43,222.605 305.43,221.105 304.5,219.5C 304.59,217.575 305.59,216.408 307.5,216C 305.899,215.727 304.399,215.227 303,214.5C 302.963,216.271 303.13,218.104 303.5,220C 303.325,221.658 302.658,222.991 301.5,224C 302.609,225.813 301.942,226.646 299.5,226.5C 299.818,231.032 299.485,235.366 298.5,239.5C 298.5,233.167 298.5,226.833 298.5,220.5C 299.25,216.194 300.417,211.86 302,207.5C 305.087,207.762 308.253,207.428 311.5,206.5C 311.579,205.07 311.246,203.736 310.5,202.5C 312.608,201.645 314.774,200.978 317,200.5C 319.437,201.654 321.937,202.154 324.5,202C 324.167,201.667 323.833,201.333 323.5,201C 324.833,200.333 325.833,199.333 326.5,198C 325.14,196.062 325.473,194.396 327.5,193C 331.835,192.754 335.669,190.921 339,187.5C 339.5,188.667 340.333,189.5 341.5,190C 344.817,190.498 348.15,190.665 351.5,190.5 Z"/></g>
<g><path style="opacity:1" fill="#1d3151" d="M 382.5,181.5 C 385.137,183.482 386.47,186.148 386.5,189.5C 388.467,189.739 390.301,189.406 392,188.5C 396.178,189.446 400.345,190.446 404.5,191.5C 404.19,194.713 404.523,197.713 405.5,200.5C 405.5,219.833 405.5,239.167 405.5,258.5C 404.5,258.5 403.5,258.5 402.5,258.5C 402.5,258.167 402.5,257.833 402.5,257.5C 403.831,249.528 404.498,241.194 404.5,232.5C 404.333,224.167 404.167,215.833 404,207.5C 402.982,209.898 401.815,212.231 400.5,214.5C 399.452,213.617 398.285,212.95 397,212.5C 395.27,213.649 393.604,213.649 392,212.5C 391.333,213.833 390.333,214.833 389,215.5C 387.559,214.13 385.892,213.13 384,212.5C 382.63,202.223 382.13,191.889 382.5,181.5 Z"/></g>
<g><path style="opacity:1" fill="#1d5598" d="M 432.5,215.5 C 432.5,234.167 432.5,252.833 432.5,271.5C 431.727,263.644 430.894,255.644 430,247.5C 429.667,247.833 429.333,248.167 429,248.5C 428.218,245.014 426.385,242.18 423.5,240C 425.405,239.174 425.739,238.007 424.5,236.5C 423.808,237.025 423.308,237.692 423,238.5C 423.128,236.555 422.962,234.722 422.5,233C 419.24,235.133 419.24,237.466 422.5,240C 420.987,242.023 419.654,241.856 418.5,239.5C 417.206,241.962 415.706,244.295 414,246.5C 413.667,249.5 413.333,252.5 413,255.5C 412.661,244.094 411.661,232.76 410,221.5C 409.752,233.858 409.252,246.192 408.5,258.5C 407.57,262.093 405.237,263.759 401.5,263.5C 402.436,262.026 403.77,261.026 405.5,260.5C 406.167,260.5 406.5,260.167 406.5,259.5C 407.491,253.021 407.824,246.354 407.5,239.5C 408.172,224.978 409.005,210.312 410,195.5C 411.275,197.717 412.275,200.051 413,202.5C 413.333,201.167 413.667,199.833 414,198.5C 415.009,200.025 415.509,201.692 415.5,203.5C 418.711,203.988 421.544,203.321 424,201.5C 424.883,204.1 426.383,206.267 428.5,208C 427.469,211.293 427.969,214.46 430,217.5C 430.417,216.244 431.25,215.577 432.5,215.5 Z"/></g>
<g><path style="opacity:1" fill="#08376f" d="M 159.5,190.5 C 159.833,190.5 160.167,190.5 160.5,190.5C 160.174,194.884 160.508,199.217 161.5,203.5C 163.496,202.39 165.329,202.724 167,204.5C 167.827,203.338 168.66,202.171 169.5,201C 166.61,199.108 166.944,198.275 170.5,198.5C 170.343,199.873 170.51,201.207 171,202.5C 173.44,203.274 174.773,204.94 175,207.5C 176.398,206.949 177.732,206.616 179,206.5C 179.333,205.167 179.667,203.833 180,202.5C 181.368,203.993 181.535,205.493 180.5,207C 183.383,207.795 184.883,206.629 185,203.5C 185.21,205.058 185.71,206.391 186.5,207.5C 186.5,207.833 186.5,208.167 186.5,208.5C 186.5,221.167 186.5,233.833 186.5,246.5C 185.671,238.677 185.171,230.677 185,222.5C 183.423,220.099 182.589,217.766 182.5,215.5C 181.062,217.998 181.396,220.164 183.5,222C 182.833,222.333 182.167,222.667 181.5,223C 181.355,228.731 181.689,234.397 182.5,240C 181.703,243.745 181.203,247.579 181,251.5C 180.626,250.584 180.126,249.75 179.5,249C 180.617,245.927 180.784,242.76 180,239.5C 179.463,242.093 178.63,244.593 177.5,247C 179.156,249.172 178.823,251.006 176.5,252.5C 175.815,250.219 175.649,247.886 176,245.5C 175.632,246.91 174.799,247.91 173.5,248.5C 173.511,247.559 173.011,246.892 172,246.5C 171,246.833 170,247.167 169,247.5C 166.276,246.313 163.443,245.647 160.5,245.5C 159.648,227.181 159.315,208.847 159.5,190.5 Z"/></g>
<g><path style="opacity:1" fill="#0d4c8b" d="M 292.5,192.5 C 293.497,212.993 293.831,233.66 293.5,254.5C 292.834,251.972 292.168,249.306 291.5,246.5C 291.795,247.826 291.295,249.159 290,250.5C 289.676,248.431 288.842,248.098 287.5,249.5C 284.346,246.683 282.013,247.35 280.5,251.5C 279.692,249.577 279.192,247.577 279,245.5C 278.692,246.308 278.192,246.975 277.5,247.5C 276.571,246.311 276.238,244.978 276.5,243.5C 275.167,243.5 273.833,243.5 272.5,243.5C 272.821,237.974 272.488,232.64 271.5,227.5C 271.871,220.678 271.205,214.012 269.5,207.5C 271.048,207.179 271.715,206.179 271.5,204.5C 270.127,204.657 268.793,204.49 267.5,204C 268.05,202.155 269.05,200.655 270.5,199.5C 273.193,201.27 276.193,201.937 279.5,201.5C 279.5,202.5 279.5,203.5 279.5,204.5C 277.897,204.312 276.563,204.812 275.5,206C 276.784,206.684 277.951,206.517 279,205.5C 279.311,206.742 278.811,207.742 277.5,208.5C 278.727,209.59 279.56,210.924 280,212.5C 281.848,209.959 284.348,208.959 287.5,209.5C 287.351,212.607 287.851,215.607 289,218.5C 289.105,214.63 289.938,210.963 291.5,207.5C 292.494,202.544 292.827,197.544 292.5,192.5 Z"/></g>
<g><path style="opacity:1" fill="#21507b" d="M 189.5,197.5 C 189.5,202.833 189.5,208.167 189.5,213.5C 189.171,228.343 189.504,243.01 190.5,257.5C 192.5,258.833 194.5,260.167 196.5,261.5C 195.508,261.328 194.842,261.662 194.5,262.5C 187.497,259.591 184.831,254.257 186.5,246.5C 186.5,233.833 186.5,221.167 186.5,208.5C 187.327,203.015 187.827,197.348 188,191.5C 188.191,193.708 188.691,195.708 189.5,197.5 Z"/></g>
<g><path style="opacity:1" fill="#0a1f42" d="M 215.5,177.5 C 219.37,178.263 222.37,180.263 224.5,183.5C 221.577,182.705 218.91,181.372 216.5,179.5C 216.08,181.326 216.08,183.326 216.5,185.5C 214.859,197.16 213.693,209.16 213,221.5C 211.333,223.5 209.667,225.5 208,227.5C 207.187,224.234 205.354,223.734 202.5,226C 201.663,227.011 201.33,228.178 201.5,229.5C 198.279,231.022 195.113,232.022 192,232.5C 190.67,240.773 190.17,249.107 190.5,257.5C 189.504,243.01 189.171,228.343 189.5,213.5C 190.319,210.695 190.819,207.695 191,204.5C 192.82,205.489 194.653,206.489 196.5,207.5C 201.338,207.306 206.338,207.306 211.5,207.5C 211.715,198.251 211.881,188.918 212,179.5C 212.816,178.177 213.983,177.511 215.5,177.5 Z"/></g>
<g><path style="opacity:1" fill="#071631" d="M 216.5,185.5 C 216.333,204.503 216.5,223.503 217,242.5C 217.717,243.044 218.217,243.711 218.5,244.5C 217.07,244.579 215.736,244.246 214.5,243.5C 213.537,243.97 213.537,244.637 214.5,245.5C 206.685,250.009 198.685,254.009 190.5,257.5C 190.17,249.107 190.67,240.773 192,232.5C 195.113,232.022 198.279,231.022 201.5,229.5C 201.33,228.178 201.663,227.011 202.5,226C 205.354,223.734 207.187,224.234 208,227.5C 209.667,225.5 211.333,223.5 213,221.5C 213.693,209.16 214.859,197.16 216.5,185.5 Z"/></g>
<g><path style="opacity:1" fill="#5aa8d5" d="M 279.5,180.5 C 284.097,184.142 289.097,187.308 294.5,190C 296.809,190.756 298.809,190.256 300.5,188.5C 301.562,189.425 301.562,190.425 300.5,191.5C 299.504,191.414 298.671,191.748 298,192.5C 297.5,209.163 297.333,225.83 297.5,242.5C 296.673,247.651 296.173,252.984 296,258.5C 295.828,251.987 295.328,245.653 294.5,239.5C 295.151,223.132 294.485,207.132 292.5,191.5C 284.989,187.915 277.989,183.582 271.5,178.5C 271.735,177.903 272.235,177.57 273,177.5C 274.978,178.906 277.145,179.906 279.5,180.5 Z"/></g>
<g><path style="opacity:1" fill="#175ca2" d="M 322.5,207.5 C 322.5,207.833 322.5,208.167 322.5,208.5C 321.833,224.5 321.167,240.5 320.5,256.5C 319.615,252.311 318.115,248.311 316,244.5C 311.968,247.031 308.802,250.364 306.5,254.5C 304.22,253.245 303.053,251.245 303,248.5C 302.105,250.804 301.271,253.138 300.5,255.5C 299.817,255.863 299.15,256.196 298.5,256.5C 298.5,250.833 298.5,245.167 298.5,239.5C 299.485,235.366 299.818,231.032 299.5,226.5C 301.942,226.646 302.609,225.813 301.5,224C 302.658,222.991 303.325,221.658 303.5,220C 303.13,218.104 302.963,216.271 303,214.5C 304.399,215.227 305.899,215.727 307.5,216C 305.59,216.408 304.59,217.575 304.5,219.5C 305.43,221.105 305.43,222.605 304.5,224C 305.071,225.205 305.738,226.372 306.5,227.5C 306.864,223.639 307.697,219.639 309,215.5C 309.885,222.078 311.052,222.078 312.5,215.5C 312.911,216.262 313.077,217.262 313,218.5C 314.314,217.687 315.481,216.687 316.5,215.5C 317.451,216.326 318.451,216.492 319.5,216C 319.838,212.746 320.838,209.912 322.5,207.5 Z"/></g>
<g><path style="opacity:1" fill="#131c30" d="M 379.5,175.5 C 380.5,175.5 381.5,175.5 382.5,175.5C 382.5,177.5 382.5,179.5 382.5,181.5C 382.13,191.889 382.63,202.223 384,212.5C 385.892,213.13 387.559,214.13 389,215.5C 390.333,214.833 391.333,213.833 392,212.5C 393.604,213.649 395.27,213.649 397,212.5C 398.285,212.95 399.452,213.617 400.5,214.5C 401.815,212.231 402.982,209.898 404,207.5C 404.167,215.833 404.333,224.167 404.5,232.5C 404.498,241.194 403.831,249.528 402.5,257.5C 395.676,254.898 389.342,251.065 383.5,246C 381.292,245.809 379.292,245.309 377.5,244.5C 378.117,244.389 378.617,244.056 379,243.5C 380.02,221.172 380.353,198.839 380,176.5C 379.329,177.252 378.496,177.586 377.5,177.5C 377.5,176.167 378.167,175.5 379.5,175.5 Z"/></g>
<g><path style="opacity:0.312" fill="#061a39" d="M 160.5,109.5 C 160.5,109.833 160.5,110.167 160.5,110.5C 159.833,110.5 159.5,110.833 159.5,111.5C 158.335,165.665 158.168,219.998 159,274.5C 163.043,276.19 166.876,278.357 170.5,281C 172.899,282.98 174.899,285.147 176.5,287.5C 170.447,283.386 164.28,279.386 158,275.5C 157.333,220.5 157.333,165.5 158,110.5C 158.671,109.748 159.504,109.414 160.5,109.5 Z"/></g>
<g><path style="opacity:1" fill="#184d93" d="M 432.5,271.5 C 431.852,273.086 431.352,274.753 431,276.5C 430.667,275.5 430.333,274.5 430,273.5C 427.17,270.516 424.337,267.516 421.5,264.5C 419.922,263.702 418.256,263.202 416.5,263C 417.258,261.636 416.758,260.469 415,259.5C 414.667,260.167 414.333,260.833 414,261.5C 412.936,259.307 411.602,257.307 410,255.5C 409.768,256.737 409.268,257.737 408.5,258.5C 409.252,246.192 409.752,233.858 410,221.5C 411.661,232.76 412.661,244.094 413,255.5C 413.333,252.5 413.667,249.5 414,246.5C 415.706,244.295 417.206,241.962 418.5,239.5C 419.654,241.856 420.987,242.023 422.5,240C 419.24,237.466 419.24,235.133 422.5,233C 422.962,234.722 423.128,236.555 423,238.5C 423.308,237.692 423.808,237.025 424.5,236.5C 425.739,238.007 425.405,239.174 423.5,240C 426.385,242.18 428.218,245.014 429,248.5C 429.333,248.167 429.667,247.833 430,247.5C 430.894,255.644 431.727,263.644 432.5,271.5 Z"/></g>
<g><path style="opacity:1" fill="#10284c" d="M 377.5,244.5 C 379.292,245.309 381.292,245.809 383.5,246C 389.342,251.065 395.676,254.898 402.5,257.5C 402.5,257.833 402.5,258.167 402.5,258.5C 402.5,258.833 402.5,259.167 402.5,259.5C 401.391,259.557 400.391,259.89 399.5,260.5C 395.787,261.005 392.287,261.338 389,261.5C 387.812,260.437 387.312,259.103 387.5,257.5C 385.856,257.286 384.356,257.62 383,258.5C 380.298,256.957 379.132,254.624 379.5,251.5C 377.473,251.338 375.473,251.505 373.5,252C 369.329,253.203 365.329,254.703 361.5,256.5C 357.424,258.749 353.09,260.416 348.5,261.5C 357.967,255.596 367.633,249.929 377.5,244.5 Z"/></g>
<g><path style="opacity:1" fill="#072f66" d="M 213.5,277.5 C 215.6,279.761 217.934,281.928 220.5,284C 218.143,283.825 215.977,283.658 214,283.5C 213.5,284 213,284.5 212.5,285C 213.595,286.675 215.095,287.842 217,288.5C 217.667,293.167 217.667,297.833 217,302.5C 216.5,303 216,303.5 215.5,304C 217.936,304.206 219.602,305.373 220.5,307.5C 216.376,305.44 212.042,303.94 207.5,303C 206.833,302 206.167,301 205.5,300C 199.215,296.763 193.215,293.263 187.5,289.5C 184.837,284.672 181.004,281.005 176,278.5C 174.932,272.095 173.432,272.095 171.5,278.5C 168.522,278.007 166.189,276.507 164.5,274C 163.207,273.51 161.873,273.343 160.5,273.5C 160.5,270.167 160.5,266.833 160.5,263.5C 166.206,263.829 171.872,263.495 177.5,262.5C 179.734,260.619 181.067,258.285 181.5,255.5C 183.986,256.244 185.986,257.744 187.5,260C 187.043,260.414 186.709,260.914 186.5,261.5C 189.839,262.527 192.839,264.027 195.5,266C 193.415,267.526 193.415,269.36 195.5,271.5C 201,272.925 202.333,275.925 199.5,280.5C 200.953,282.467 201.953,284.633 202.5,287C 203.944,287.781 205.277,287.614 206.5,286.5C 207.427,284.509 207.594,282.509 207,280.5C 209.139,281.769 211.305,281.769 213.5,280.5C 212.975,279.808 212.308,279.308 211.5,279C 212.416,278.722 213.082,278.222 213.5,277.5 Z"/></g>
<g><path style="opacity:1" fill="#093c76" d="M 271.5,227.5 C 272.488,232.64 272.821,237.974 272.5,243.5C 273.833,243.5 275.167,243.5 276.5,243.5C 276.238,244.978 276.571,246.311 277.5,247.5C 278.192,246.975 278.692,246.308 279,245.5C 279.192,247.577 279.692,249.577 280.5,251.5C 282.013,247.35 284.346,246.683 287.5,249.5C 288.842,248.098 289.676,248.431 290,250.5C 291.295,249.159 291.795,247.826 291.5,246.5C 292.168,249.306 292.834,251.972 293.5,254.5C 293.5,260.167 293.5,265.833 293.5,271.5C 292.442,272.6 291.608,273.934 291,275.5C 290.667,279.167 290.333,282.833 290,286.5C 289.026,284.122 288.359,284.456 288,287.5C 287.774,284.905 287.274,282.405 286.5,280C 281.845,279.501 277.179,279.334 272.5,279.5C 272.819,274.637 272.486,269.97 271.5,265.5C 271.5,252.833 271.5,240.167 271.5,227.5 Z"/></g>
<g><path style="opacity:1" fill="#14468a" d="M 432.5,190.5 C 432.833,190.5 433.167,190.5 433.5,190.5C 433.5,193.5 433.5,196.5 433.5,199.5C 433.667,225.169 433.5,250.835 433,276.5C 432.329,277.252 431.496,277.586 430.5,277.5C 426.726,279.425 422.726,280.758 418.5,281.5C 418.67,282.822 418.337,283.989 417.5,285C 412.752,286.072 409.085,287.905 406.5,290.5C 402.889,289.39 400.389,287.057 399,283.5C 397.47,284.92 395.637,285.92 393.5,286.5C 393.833,287.167 394.167,287.833 394.5,288.5C 391.247,289.041 388.414,290.374 386,292.5C 383.98,291.968 383.147,290.635 383.5,288.5C 384.552,288.649 385.552,288.483 386.5,288C 385.234,287.691 384.067,287.191 383,286.5C 379.148,287.771 375.315,289.104 371.5,290.5C 372.833,291.167 374.167,291.833 375.5,292.5C 370.639,293.549 365.805,294.549 361,295.5C 358.748,293.073 355.914,292.073 352.5,292.5C 352.5,293.5 352.5,294.5 352.5,295.5C 355.387,296.62 358.387,297.62 361.5,298.5C 361.154,299.696 360.654,299.696 360,298.5C 358.764,301.558 356.764,301.558 354,298.5C 353.086,299.654 352.253,299.487 351.5,298C 349.527,297.505 347.527,297.338 345.5,297.5C 345.034,299.201 345.034,300.701 345.5,302C 343.104,302.866 342.437,302.366 343.5,300.5C 341.189,299.425 338.856,299.425 336.5,300.5C 357.735,287.383 379.402,275.05 401.5,263.5C 405.237,263.759 407.57,262.093 408.5,258.5C 409.268,257.737 409.768,256.737 410,255.5C 411.602,257.307 412.936,259.307 414,261.5C 414.333,260.833 414.667,260.167 415,259.5C 416.758,260.469 417.258,261.636 416.5,263C 418.256,263.202 419.922,263.702 421.5,264.5C 424.337,267.516 427.17,270.516 430,273.5C 430.333,274.5 430.667,275.5 431,276.5C 431.352,274.753 431.852,273.086 432.5,271.5C 432.5,252.833 432.5,234.167 432.5,215.5C 432.5,207.167 432.5,198.833 432.5,190.5 Z"/></g>
<g><path style="opacity:1" fill="#2a6da5" d="M 300.5,191.5 C 300.217,192.289 299.717,192.956 299,193.5C 298.5,202.494 298.334,211.494 298.5,220.5C 298.5,226.833 298.5,233.167 298.5,239.5C 298.5,245.167 298.5,250.833 298.5,256.5C 297.839,289.162 297.505,321.829 297.5,354.5C 297.158,355.338 296.492,355.672 295.5,355.5C 294.699,353.958 294.366,352.292 294.5,350.5C 294.5,329.833 294.5,309.167 294.5,288.5C 295.326,292.982 295.826,297.649 296,302.5C 297.297,282.523 297.797,262.523 297.5,242.5C 297.333,225.83 297.5,209.163 298,192.5C 298.671,191.748 299.504,191.414 300.5,191.5 Z"/></g>
<g><path style="opacity:0.169" fill="#0f213e" d="M 433.5,199.5 C 433.833,199.5 434.167,199.5 434.5,199.5C 434.667,225.502 434.5,251.502 434,277.5C 429.39,280.887 424.557,283.887 419.5,286.5C 419.5,285.5 419.5,284.5 419.5,283.5C 422.438,282.372 425.438,281.205 428.5,280C 429.381,279.292 430.047,278.458 430.5,277.5C 431.496,277.586 432.329,277.252 433,276.5C 433.5,250.835 433.667,225.169 433.5,199.5 Z"/></g>
<g><path style="opacity:1" fill="#10315e" d="M 399.5,260.5 C 393.452,265.193 386.785,268.859 379.5,271.5C 378.5,271.5 377.5,271.5 376.5,271.5C 375.475,266.472 373.142,262.139 369.5,258.5C 367.149,256.771 364.482,256.104 361.5,256.5C 365.329,254.703 369.329,253.203 373.5,252C 375.473,251.505 377.473,251.338 379.5,251.5C 379.132,254.624 380.298,256.957 383,258.5C 384.356,257.62 385.856,257.286 387.5,257.5C 387.312,259.103 387.812,260.437 389,261.5C 392.287,261.338 395.787,261.005 399.5,260.5 Z"/></g>
<g><path style="opacity:1" fill="#145095" d="M 320.5,256.5 C 320.281,263.582 320.281,270.582 320.5,277.5C 317.913,278.124 315.247,279.457 312.5,281.5C 311.534,283.396 311.201,285.396 311.5,287.5C 308.606,287.958 306.106,287.291 304,285.5C 303.29,286.973 302.124,287.64 300.5,287.5C 298.831,294.363 298.164,301.363 298.5,308.5C 298.5,316.5 298.5,324.5 298.5,332.5C 298.5,339.833 298.5,347.167 298.5,354.5C 298.167,354.5 297.833,354.5 297.5,354.5C 297.505,321.829 297.839,289.162 298.5,256.5C 299.15,256.196 299.817,255.863 300.5,255.5C 301.271,253.138 302.105,250.804 303,248.5C 303.053,251.245 304.22,253.245 306.5,254.5C 308.802,250.364 311.968,247.031 316,244.5C 318.115,248.311 319.615,252.311 320.5,256.5 Z"/></g>
<g><path style="opacity:0.263" fill="#0c274a" d="M 347.5,195.5 C 339.837,200.303 332.004,204.97 324,209.5C 323.167,231.174 323.334,252.841 324.5,274.5C 330.243,270.962 336.243,267.962 342.5,265.5C 341.101,268.39 338.768,269.89 335.5,270C 333.092,272.398 330.426,274.231 327.5,275.5C 325.883,276.038 324.216,276.371 322.5,276.5C 322.5,253.833 322.5,231.167 322.5,208.5C 322.5,208.167 322.5,207.833 322.5,207.5C 328.968,204.767 334.968,201.267 340.5,197C 342.74,196.023 345.073,195.523 347.5,195.5 Z"/></g>
<g><path style="opacity:1" fill="#134178" d="M 361.5,256.5 C 364.482,256.104 367.149,256.771 369.5,258.5C 373.142,262.139 375.475,266.472 376.5,271.5C 377.5,271.5 378.5,271.5 379.5,271.5C 375.778,273.644 372.112,275.977 368.5,278.5C 367.761,278.631 367.094,278.464 366.5,278C 367.769,275.861 367.769,273.695 366.5,271.5C 362.893,269.562 360.893,266.562 360.5,262.5C 355.644,260.788 351.311,261.621 347.5,265C 345.866,265.494 344.199,265.66 342.5,265.5C 344.223,263.782 346.223,262.449 348.5,261.5C 353.09,260.416 357.424,258.749 361.5,256.5 Z"/></g>
<g><path style="opacity:1" fill="#1765ae" d="M 368.5,278.5 C 353.128,286.949 338.128,295.949 323.5,305.5C 323.957,306.298 324.624,306.631 325.5,306.5C 325.5,306.833 325.5,307.167 325.5,307.5C 324.5,307.5 323.5,307.5 322.5,307.5C 322.334,297.828 322.5,288.161 323,278.5C 324.878,277.947 326.378,276.947 327.5,275.5C 330.426,274.231 333.092,272.398 335.5,270C 338.768,269.89 341.101,268.39 342.5,265.5C 344.199,265.66 345.866,265.494 347.5,265C 351.311,261.621 355.644,260.788 360.5,262.5C 360.893,266.562 362.893,269.562 366.5,271.5C 367.769,273.695 367.769,275.861 366.5,278C 367.094,278.464 367.761,278.631 368.5,278.5 Z"/></g>
<g><path style="opacity:1" fill="#08336b" d="M 186.5,246.5 C 184.831,254.257 187.497,259.591 194.5,262.5C 200.839,266.509 207.173,270.509 213.5,274.5C 213.5,275.5 213.5,276.5 213.5,277.5C 213.082,278.222 212.416,278.722 211.5,279C 212.308,279.308 212.975,279.808 213.5,280.5C 211.305,281.769 209.139,281.769 207,280.5C 207.594,282.509 207.427,284.509 206.5,286.5C 205.277,287.614 203.944,287.781 202.5,287C 201.953,284.633 200.953,282.467 199.5,280.5C 202.333,275.925 201,272.925 195.5,271.5C 193.415,269.36 193.415,267.526 195.5,266C 192.839,264.027 189.839,262.527 186.5,261.5C 186.709,260.914 187.043,260.414 187.5,260C 185.986,257.744 183.986,256.244 181.5,255.5C 181.067,258.285 179.734,260.619 177.5,262.5C 171.872,263.495 166.206,263.829 160.5,263.5C 160.5,257.5 160.5,251.5 160.5,245.5C 163.443,245.647 166.276,246.313 169,247.5C 170,247.167 171,246.833 172,246.5C 173.011,246.892 173.511,247.559 173.5,248.5C 174.799,247.91 175.632,246.91 176,245.5C 175.649,247.886 175.815,250.219 176.5,252.5C 178.823,251.006 179.156,249.172 177.5,247C 178.63,244.593 179.463,242.093 180,239.5C 180.784,242.76 180.617,245.927 179.5,249C 180.126,249.75 180.626,250.584 181,251.5C 181.203,247.579 181.703,243.745 182.5,240C 181.689,234.397 181.355,228.731 181.5,223C 182.167,222.667 182.833,222.333 183.5,222C 181.396,220.164 181.062,217.998 182.5,215.5C 182.589,217.766 183.423,220.099 185,222.5C 185.171,230.677 185.671,238.677 186.5,246.5 Z"/></g>
<g><path style="opacity:1" fill="#0e396f" d="M 214.5,245.5 C 216.099,245.232 217.432,245.566 218.5,246.5C 228.632,251.764 238.299,257.764 247.5,264.5C 248.356,266.923 247.689,269.089 245.5,271C 246.022,271.561 246.355,272.228 246.5,273C 245.214,275.569 244.214,278.236 243.5,281C 245.442,283.933 244.776,285.766 241.5,286.5C 236.735,284.618 232.068,282.452 227.5,280C 217.502,273.332 207.169,267.165 196.5,261.5C 194.5,260.167 192.5,258.833 190.5,257.5C 198.685,254.009 206.685,250.009 214.5,245.5 Z"/></g>
<g><path style="opacity:1" fill="#104380" d="M 218.5,246.5 C 218.414,247.496 218.748,248.329 219.5,249C 223.357,252.097 227.69,254.43 232.5,256C 233.155,257.487 234.155,258.653 235.5,259.5C 236.942,262.787 236.275,265.62 233.5,268C 234.406,269.699 234.739,271.533 234.5,273.5C 232.523,272.851 230.69,272.851 229,273.5C 226.481,269.701 223.481,269.035 220,271.5C 216.571,270.066 213.738,267.899 211.5,265C 212.308,264.692 212.975,264.192 213.5,263.5C 212.01,262.174 210.676,260.674 209.5,259C 212.167,256.333 212.167,253.667 209.5,251C 211.75,250.389 213.417,249.056 214.5,247C 215.793,246.51 217.127,246.343 218.5,246.5 Z"/></g>
<g><path style="opacity:0.995" fill="#091936" d="M 218.5,244.5 C 234.887,254.871 251.554,264.871 268.5,274.5C 269.494,283.986 269.827,293.652 269.5,303.5C 267.315,303.296 265.315,302.63 263.5,301.5C 259.341,298.253 255.008,295.253 250.5,292.5C 248.872,286.84 249.872,281.674 253.5,277C 252.007,273.972 252.674,271.472 255.5,269.5C 253.113,267.311 250.447,265.644 247.5,264.5C 238.299,257.764 228.632,251.764 218.5,246.5C 217.432,245.566 216.099,245.232 214.5,245.5C 213.537,244.637 213.537,243.97 214.5,243.5C 215.736,244.246 217.07,244.579 218.5,244.5 Z"/></g>
<g><path style="opacity:1" fill="#0b2850" d="M 247.5,264.5 C 250.447,265.644 253.113,267.311 255.5,269.5C 252.674,271.472 252.007,273.972 253.5,277C 249.872,281.674 248.872,286.84 250.5,292.5C 246.954,291.281 243.954,289.281 241.5,286.5C 244.776,285.766 245.442,283.933 243.5,281C 244.214,278.236 245.214,275.569 246.5,273C 246.355,272.228 246.022,271.561 245.5,271C 247.689,269.089 248.356,266.923 247.5,264.5 Z"/></g>
<g><path style="opacity:1" fill="#08356c" d="M 271.5,265.5 C 272.486,269.97 272.819,274.637 272.5,279.5C 277.179,279.334 281.845,279.501 286.5,280C 287.274,282.405 287.774,284.905 288,287.5C 288.359,284.456 289.026,284.122 290,286.5C 290.333,282.833 290.667,279.167 291,275.5C 291.608,273.934 292.442,272.6 293.5,271.5C 293.5,293.167 293.5,314.833 293.5,336.5C 292.535,326.999 291.702,317.332 291,307.5C 290.667,306.833 290.333,306.167 290,305.5C 289.821,309.025 289.321,312.359 288.5,315.5C 288.717,309.768 288.217,304.101 287,298.5C 282.435,298.133 278.102,297.133 274,295.5C 273.667,296.167 273.333,296.833 273,297.5C 271.688,286.878 271.188,276.211 271.5,265.5 Z"/></g>
<g><path style="opacity:1" fill="#346696" d="M 196.5,261.5 C 207.169,267.165 217.502,273.332 227.5,280C 232.068,282.452 236.735,284.618 241.5,286.5C 243.954,289.281 246.954,291.281 250.5,292.5C 255.008,295.253 259.341,298.253 263.5,301.5C 263.44,302.043 263.107,302.376 262.5,302.5C 259.14,300.82 255.807,299.153 252.5,297.5C 239.823,289.275 226.823,281.609 213.5,274.5C 207.173,270.509 200.839,266.509 194.5,262.5C 194.842,261.662 195.508,261.328 196.5,261.5 Z"/></g>
<g><path style="opacity:1" fill="#083369" d="M 213.5,274.5 C 226.823,281.609 239.823,289.275 252.5,297.5C 252.316,300.173 251.149,300.84 249,299.5C 247.67,300.582 246.17,301.249 244.5,301.5C 242.088,301.331 239.921,301.997 238,303.5C 236.7,302.293 235.2,301.626 233.5,301.5C 233.891,304.838 232.724,305.838 230,304.5C 228.5,304.667 227.667,305.5 227.5,307C 228.817,308.614 230.483,309.781 232.5,310.5C 230.824,311.728 230.491,313.061 231.5,314.5C 227.219,313.08 223.552,310.747 220.5,307.5C 219.602,305.373 217.936,304.206 215.5,304C 216,303.5 216.5,303 217,302.5C 217.667,297.833 217.667,293.167 217,288.5C 215.095,287.842 213.595,286.675 212.5,285C 213,284.5 213.5,284 214,283.5C 215.977,283.658 218.143,283.825 220.5,284C 217.934,281.928 215.6,279.761 213.5,277.5C 213.5,276.5 213.5,275.5 213.5,274.5 Z"/></g>
<g><path style="opacity:1" fill="#0b2d5b" d="M 159.5,111.5 C 159.5,112.5 159.5,113.5 159.5,114.5C 159.5,115.833 159.5,117.167 159.5,118.5C 159.5,142.5 159.5,166.5 159.5,190.5C 159.315,208.847 159.648,227.181 160.5,245.5C 160.5,251.5 160.5,257.5 160.5,263.5C 160.5,266.833 160.5,270.167 160.5,273.5C 161.873,273.343 163.207,273.51 164.5,274C 166.189,276.507 168.522,278.007 171.5,278.5C 173.432,272.095 174.932,272.095 176,278.5C 181.004,281.005 184.837,284.672 187.5,289.5C 184.211,288.626 180.877,287.959 177.5,287.5C 177.167,287.5 176.833,287.5 176.5,287.5C 174.899,285.147 172.899,282.98 170.5,281C 166.876,278.357 163.043,276.19 159,274.5C 158.168,219.998 158.335,165.665 159.5,111.5 Z"/></g>
<g><path style="opacity:1" fill="#124185" d="M 430.5,277.5 C 430.047,278.458 429.381,279.292 428.5,280C 425.438,281.205 422.438,282.372 419.5,283.5C 419.5,284.5 419.5,285.5 419.5,286.5C 417.436,286.687 415.436,287.187 413.5,288C 400.907,295.455 388.241,302.622 375.5,309.5C 374.127,309.343 372.793,309.51 371.5,310C 370.449,311.385 369.116,312.385 367.5,313C 364.443,313.256 361.443,313.756 358.5,314.5C 357.749,313.624 357.249,312.624 357,311.5C 356,312.833 355,314.167 354,315.5C 353.005,314.934 352.172,314.267 351.5,313.5C 350.193,311.848 350.193,310.182 351.5,308.5C 349.902,305.515 347.568,304.849 344.5,306.5C 343.407,304.23 341.907,303.897 340,305.5C 338.715,305.05 337.548,304.383 336.5,303.5C 334.5,305.167 332.5,306.833 330.5,308.5C 328.929,307.691 327.262,307.357 325.5,307.5C 325.5,307.167 325.5,306.833 325.5,306.5C 328.979,304.258 332.646,302.258 336.5,300.5C 338.856,299.425 341.189,299.425 343.5,300.5C 342.437,302.366 343.104,302.866 345.5,302C 345.034,300.701 345.034,299.201 345.5,297.5C 347.527,297.338 349.527,297.505 351.5,298C 352.253,299.487 353.086,299.654 354,298.5C 356.764,301.558 358.764,301.558 360,298.5C 360.654,299.696 361.154,299.696 361.5,298.5C 358.387,297.62 355.387,296.62 352.5,295.5C 352.5,294.5 352.5,293.5 352.5,292.5C 355.914,292.073 358.748,293.073 361,295.5C 365.805,294.549 370.639,293.549 375.5,292.5C 374.167,291.833 372.833,291.167 371.5,290.5C 375.315,289.104 379.148,287.771 383,286.5C 384.067,287.191 385.234,287.691 386.5,288C 385.552,288.483 384.552,288.649 383.5,288.5C 383.147,290.635 383.98,291.968 386,292.5C 388.414,290.374 391.247,289.041 394.5,288.5C 394.167,287.833 393.833,287.167 393.5,286.5C 395.637,285.92 397.47,284.92 399,283.5C 400.389,287.057 402.889,289.39 406.5,290.5C 409.085,287.905 412.752,286.072 417.5,285C 418.337,283.989 418.67,282.822 418.5,281.5C 422.726,280.758 426.726,279.425 430.5,277.5 Z"/></g>
<g><path style="opacity:1" fill="#124788" d="M 322.5,208.5 C 322.5,231.167 322.5,253.833 322.5,276.5C 324.216,276.371 325.883,276.038 327.5,275.5C 326.378,276.947 324.878,277.947 323,278.5C 322.5,288.161 322.334,297.828 322.5,307.5C 323.5,307.5 324.5,307.5 325.5,307.5C 324.432,308.434 323.099,308.768 321.5,308.5C 323.257,301.651 320.924,299.318 314.5,301.5C 313.522,301.023 312.689,300.357 312,299.5C 310.983,302.028 309.816,302.028 308.5,299.5C 307.481,300.687 306.314,301.687 305,302.5C 304.667,301.833 304.333,301.167 304,300.5C 302.768,303.3 302.101,306.3 302,309.5C 301.324,300.815 300.158,300.482 298.5,308.5C 298.164,301.363 298.831,294.363 300.5,287.5C 302.124,287.64 303.29,286.973 304,285.5C 306.106,287.291 308.606,287.958 311.5,287.5C 311.201,285.396 311.534,283.396 312.5,281.5C 315.247,279.457 317.913,278.124 320.5,277.5C 320.281,270.582 320.281,263.582 320.5,256.5C 321.167,240.5 321.833,224.5 322.5,208.5 Z"/></g>
<g><path style="opacity:1" fill="#3982bd" d="M 402.5,259.5 C 403.791,259.263 404.791,259.596 405.5,260.5C 403.77,261.026 402.436,262.026 401.5,263.5C 379.402,275.05 357.735,287.383 336.5,300.5C 332.646,302.258 328.979,304.258 325.5,306.5C 324.624,306.631 323.957,306.298 323.5,305.5C 338.128,295.949 353.128,286.949 368.5,278.5C 372.112,275.977 375.778,273.644 379.5,271.5C 386.785,268.859 393.452,265.193 399.5,260.5C 400.391,259.89 401.391,259.557 402.5,259.5 Z"/></g>
<g><path style="opacity:1" fill="#093266" d="M 263.5,206.5 C 265.565,206.517 267.565,206.85 269.5,207.5C 271.205,214.012 271.871,220.678 271.5,227.5C 271.5,240.167 271.5,252.833 271.5,265.5C 271.188,276.211 271.688,286.878 273,297.5C 273.333,296.833 273.667,296.167 274,295.5C 278.102,297.133 282.435,298.133 287,298.5C 288.217,304.101 288.717,309.768 288.5,315.5C 286.896,314.713 286.229,313.38 286.5,311.5C 280.933,312.046 275.6,311.379 270.5,309.5C 267.035,310.434 266.702,311.934 269.5,314C 268.437,315.188 267.103,315.688 265.5,315.5C 265.762,314.022 265.429,312.689 264.5,311.5C 261.897,309.951 259.397,308.285 257,306.5C 255.7,308.459 253.867,309.626 251.5,310C 252.696,310.654 252.696,311.154 251.5,311.5C 248.182,309.367 244.515,308.367 240.5,308.5C 240.5,307.5 240.5,306.5 240.5,305.5C 242.819,306.167 245.153,306.334 247.5,306C 246.051,304.883 244.384,304.216 242.5,304C 243.381,303.292 244.047,302.458 244.5,301.5C 246.17,301.249 247.67,300.582 249,299.5C 251.149,300.84 252.316,300.173 252.5,297.5C 255.807,299.153 259.14,300.82 262.5,302.5C 263.107,302.376 263.44,302.043 263.5,301.5C 265.315,302.63 267.315,303.296 269.5,303.5C 269.827,293.652 269.494,283.986 268.5,274.5C 269.633,253.197 269.8,231.864 269,210.5C 267.188,209.023 265.355,207.69 263.5,206.5 Z"/></g>
<g><path style="opacity:1" fill="#4587bc" d="M 294.5,239.5 C 295.328,245.653 295.828,251.987 296,258.5C 296.173,252.984 296.673,247.651 297.5,242.5C 297.797,262.523 297.297,282.523 296,302.5C 295.826,297.649 295.326,292.982 294.5,288.5C 294.5,272.167 294.5,255.833 294.5,239.5 Z"/></g>
<g><path style="opacity:0.992" fill="#09224a" d="M 177.5,287.5 C 180.877,287.959 184.211,288.626 187.5,289.5C 193.215,293.263 199.215,296.763 205.5,300C 206.167,301 206.833,302 207.5,303C 212.042,303.94 216.376,305.44 220.5,307.5C 223.552,310.747 227.219,313.08 231.5,314.5C 232.777,316.148 233.777,317.982 234.5,320C 242.343,324.422 250.343,328.588 258.5,332.5C 259.386,333.325 259.719,334.325 259.5,335.5C 231.902,319.891 204.569,303.891 177.5,287.5 Z"/></g>
<g><path style="opacity:1" fill="#104082" d="M 325.5,307.5 C 327.262,307.357 328.929,307.691 330.5,308.5C 332.5,306.833 334.5,305.167 336.5,303.5C 337.548,304.383 338.715,305.05 340,305.5C 341.907,303.897 343.407,304.23 344.5,306.5C 347.568,304.849 349.902,305.515 351.5,308.5C 350.193,310.182 350.193,311.848 351.5,313.5C 347.708,313.729 343.875,313.729 340,313.5C 335.63,314.973 331.797,316.639 328.5,318.5C 327.833,320.167 327.167,321.833 326.5,323.5C 324.411,322.197 322.744,322.697 321.5,325C 319.423,325.192 317.423,325.692 315.5,326.5C 316.59,327.609 316.59,328.609 315.5,329.5C 313.833,328.167 312.167,326.833 310.5,325.5C 308.477,327.416 306.143,328.249 303.5,328C 304.833,327.333 304.833,326.667 303.5,326C 304.167,325.667 304.833,325.333 305.5,325C 304.333,324.5 303.5,323.667 303,322.5C 302.667,324.167 302.333,325.833 302,327.5C 301.667,326.5 301.333,325.5 301,324.5C 301.053,327.675 300.22,330.342 298.5,332.5C 298.5,324.5 298.5,316.5 298.5,308.5C 300.158,300.482 301.324,300.815 302,309.5C 302.101,306.3 302.768,303.3 304,300.5C 304.333,301.167 304.667,301.833 305,302.5C 306.314,301.687 307.481,300.687 308.5,299.5C 309.816,302.028 310.983,302.028 312,299.5C 312.689,300.357 313.522,301.023 314.5,301.5C 320.924,299.318 323.257,301.651 321.5,308.5C 323.099,308.768 324.432,308.434 325.5,307.5 Z"/></g>
<g><path style="opacity:1" fill="#072f64" d="M 244.5,301.5 C 244.047,302.458 243.381,303.292 242.5,304C 244.384,304.216 246.051,304.883 247.5,306C 245.153,306.334 242.819,306.167 240.5,305.5C 240.5,306.5 240.5,307.5 240.5,308.5C 244.515,308.367 248.182,309.367 251.5,311.5C 252.696,311.154 252.696,310.654 251.5,310C 253.867,309.626 255.7,308.459 257,306.5C 259.397,308.285 261.897,309.951 264.5,311.5C 265.429,312.689 265.762,314.022 265.5,315.5C 267.103,315.688 268.437,315.188 269.5,314C 266.702,311.934 267.035,310.434 270.5,309.5C 275.6,311.379 280.933,312.046 286.5,311.5C 286.229,313.38 286.896,314.713 288.5,315.5C 289.321,312.359 289.821,309.025 290,305.5C 290.333,306.167 290.667,306.833 291,307.5C 291.702,317.332 292.535,326.999 293.5,336.5C 293.181,341.363 293.514,346.03 294.5,350.5C 294.366,352.292 294.699,353.958 295.5,355.5C 294.833,355.5 294.167,355.5 293.5,355.5C 293.063,353.926 292.063,352.759 290.5,352C 284.34,350.167 279.673,346.5 276.5,341C 272.775,339.921 269.442,338.255 266.5,336C 264.19,335.503 261.857,335.337 259.5,335.5C 259.719,334.325 259.386,333.325 258.5,332.5C 250.343,328.588 242.343,324.422 234.5,320C 233.777,317.982 232.777,316.148 231.5,314.5C 230.491,313.061 230.824,311.728 232.5,310.5C 230.483,309.781 228.817,308.614 227.5,307C 227.667,305.5 228.5,304.667 230,304.5C 232.724,305.838 233.891,304.838 233.5,301.5C 235.2,301.626 236.7,302.293 238,303.5C 239.921,301.997 242.088,301.331 244.5,301.5 Z"/></g>
<g><path style="opacity:1" fill="#0f3c7c" d="M 375.5,309.5 C 362.265,317.46 348.931,325.46 335.5,333.5C 335.137,334.183 334.804,334.85 334.5,335.5C 327.596,336.864 321.596,340.03 316.5,345C 310.593,348.452 304.593,351.619 298.5,354.5C 298.5,347.167 298.5,339.833 298.5,332.5C 300.22,330.342 301.053,327.675 301,324.5C 301.333,325.5 301.667,326.5 302,327.5C 302.333,325.833 302.667,324.167 303,322.5C 303.5,323.667 304.333,324.5 305.5,325C 304.833,325.333 304.167,325.667 303.5,326C 304.833,326.667 304.833,327.333 303.5,328C 306.143,328.249 308.477,327.416 310.5,325.5C 312.167,326.833 313.833,328.167 315.5,329.5C 316.59,328.609 316.59,327.609 315.5,326.5C 317.423,325.692 319.423,325.192 321.5,325C 322.744,322.697 324.411,322.197 326.5,323.5C 327.167,321.833 327.833,320.167 328.5,318.5C 331.797,316.639 335.63,314.973 340,313.5C 343.875,313.729 347.708,313.729 351.5,313.5C 352.172,314.267 353.005,314.934 354,315.5C 355,314.167 356,312.833 357,311.5C 357.249,312.624 357.749,313.624 358.5,314.5C 361.443,313.756 364.443,313.256 367.5,313C 369.116,312.385 370.449,311.385 371.5,310C 372.793,309.51 374.127,309.343 375.5,309.5 Z"/></g>
<g><path style="opacity:0.318" fill="#091e43" d="M 419.5,286.5 C 391.37,303.069 363.037,319.402 334.5,335.5C 334.804,334.85 335.137,334.183 335.5,333.5C 348.931,325.46 362.265,317.46 375.5,309.5C 388.241,302.622 400.907,295.455 413.5,288C 415.436,287.187 417.436,286.687 419.5,286.5 Z"/></g>
<g><path style="opacity:1" fill="#144e81" d="M 292.5,192.5 C 292.5,192.167 292.5,191.833 292.5,191.5C 294.485,207.132 295.151,223.132 294.5,239.5C 294.5,255.833 294.5,272.167 294.5,288.5C 294.5,309.167 294.5,329.833 294.5,350.5C 293.514,346.03 293.181,341.363 293.5,336.5C 293.5,314.833 293.5,293.167 293.5,271.5C 293.5,265.833 293.5,260.167 293.5,254.5C 293.831,233.66 293.497,212.993 292.5,192.5 Z"/></g>
<g><path style="opacity:0.42" fill="#061c40" d="M 259.5,335.5 C 261.857,335.337 264.19,335.503 266.5,336C 269.442,338.255 272.775,339.921 276.5,341C 279.673,346.5 284.34,350.167 290.5,352C 292.063,352.759 293.063,353.926 293.5,355.5C 281.902,349.224 270.568,342.557 259.5,335.5 Z"/></g>
<g><path style="opacity:0.451" fill="#061b41" d="M 334.5,335.5 C 322.729,342.892 310.729,350.059 298.5,357C 296.326,357.877 294.659,357.377 293.5,355.5C 294.167,355.5 294.833,355.5 295.5,355.5C 296.492,355.672 297.158,355.338 297.5,354.5C 297.833,354.5 298.167,354.5 298.5,354.5C 304.593,351.619 310.593,348.452 316.5,345C 321.596,340.03 327.596,336.864 334.5,335.5 Z"/></g>
</svg>
